<?xml version="1.0" encoding="UTF-8"?>
<svg id="Layer_1" xmlns="http://www.w3.org/2000/svg" version="1.1" viewBox="0 0 800 800">
  <!-- Generator: Adobe Illustrator 29.1.0, SVG Export Plug-In . SVG Version: 2.1.0 Build 142)  -->
  <defs>
    <style>
      .st0, .st1, .st2, .st3 {
        isolation: isolate;
      }

      .st0, .st1, .st3 {
        font-family: ArialMT, Arial;
        font-size: 29px;
      }

      .st0, .st4 {
        fill: #30b5b5;
      }

      .st5 {
        stroke: #d8d8d8;
      }

      .st5, .st6, .st7, .st8, .st9, .st10, .st11, .st12, .st13, .st14, .st15, .st16, .st17, .st18, .st19, .st20, .st21 {
        fill: none;
      }

      .st5, .st6, .st7, .st10, .st13, .st14, .st15, .st17, .st22, .st19, .st23, .st24 {
        stroke-miterlimit: 10;
      }

      .st5, .st10, .st14, .st23 {
        stroke-width: 2px;
      }

      .st6 {
        stroke-dasharray: 5 7;
      }

      .st6, .st7, .st8, .st9, .st10, .st11, .st12, .st14, .st15, .st16, .st17, .st22, .st18, .st19, .st20, .st23, .st21 {
        stroke-linecap: round;
      }

      .st6, .st7, .st15, .st17, .st22 {
        stroke-width: 3px;
      }

      .st6, .st15, .st16, .st17, .st20 {
        stroke: #e0586b;
      }

      .st7, .st8, .st9, .st10, .st11, .st12, .st14, .st22, .st18, .st19, .st23, .st21 {
        stroke: #30b5b5;
      }

      .st8 {
        stroke-miterlimit: 10;
        stroke-width: 2px;
      }

      .st1, .st25, .st22, .st23 {
        fill: #fff;
      }

      .st9 {
        stroke-miterlimit: 10;
        stroke-width: 1px;
      }

      .st11 {
        stroke-miterlimit: 10;
        stroke-width: 2px;
      }

      .st12 {
        stroke-width: 2px;
      }

      .st12, .st14 {
        stroke-dasharray: 0 6;
      }

      .st12, .st20, .st21 {
        stroke-miterlimit: 10;
      }

      .st13 {
        stroke: #fff;
      }

      .st16 {
        stroke-miterlimit: 10;
        stroke-width: 1px;
      }

      .st17 {
        stroke-dasharray: 4.9 6.9;
      }

      .st3, .st26 {
        fill: #e0586b;
      }

      .st27 {
        fill: #d8d8d8;
      }

      .st18 {
        stroke-miterlimit: 10;
        stroke-width: 1px;
      }

      .st18, .st19 {
        stroke-dasharray: 25.4 26.4;
      }

      .st20 {
        stroke-width: 3px;
      }

      .st21 {
        stroke-dasharray: 27.1 28.1;
        stroke-width: 1px;
      }

      .st24 {
        fill: #150d3d;
        stroke: #000;
      }
    </style>
  </defs>
  <rect class="st24" width="800" height="800"/>
  <g id="OBJECTS">
    <g>
      <g>
        <path class="st7" d="M564.6,487.9c0,5.5-4.4,10-9.9,10l-342.4-1.9c-5.5,0-10-4.6-9.9-10.1l3.7-251.8c0-5.5,4.7-10.1,10.2-10.1h334.9c5.5,0,10.1,4.5,10.2,10.1l3.3,253.8h0Z"/>
        <path class="st7" d="M532,469.3c0,2.2-1.8,4-4,4l-289.3-1.6c-2.2,0-4-1.8-4-4.1l3.2-214.9c0-2.2,1.9-4,4.1-4h283.1c2.2,0,4.1,1.8,4.1,4l2.8,216.6Z"/>
        <g>
          <line class="st10" x1="250.1" y1="263.7" x2="272.6" y2="263.7"/>
          <line class="st10" x1="250.1" y1="269.6" x2="272.6" y2="269.6"/>
          <line class="st10" x1="250.1" y1="275.6" x2="272.6" y2="275.6"/>
        </g>
        <path class="st10" d="M473.7,278.4h-180.6c-4,0-7.2-3.3-7.2-7.2v-3c0-4,3.3-7.2,7.2-7.2h180.6c4,0,7.2,3.3,7.2,7.2v3c0,4-3.3,7.2-7.2,7.2Z"/>
        <g>
          <g>
            <path class="st10" d="M502.7,268c.2,2.2-1.3,4.1-3.5,4.4s-4.1-1.3-4.4-3.5,1.3-4.1,3.5-4.4c2.2-.2,4.1,1.3,4.4,3.5Z"/>
            <line class="st10" x1="501.9" y1="271" x2="506.7" y2="274.8"/>
          </g>
          <path class="st10" d="M506.7,278.4h-13.3c-3.9,0-7-3.1-7-7v-3.5c0-3.9,3.1-7,7-7h13.3c3.9,0,7,3.1,7,7v3.5c0,3.9-3.1,7-7,7Z"/>
        </g>
        <polygon class="st27" points="377.1 398.3 248.9 398.3 250.1 298.6 377.1 298.6 377.1 398.3"/>
        <polygon class="st27" points="387.7 398.3 516.7 398.3 515.5 298.6 387.7 298.6 387.7 398.3"/>
        <g>
          <path class="st10" d="M517.1,459.3c0,2.2-1.7,4-3.7,4h-52c-2,0-3.7-1.8-3.7-4v-29.2c0-2.2,1.7-4,3.7-4h52c2,0,3.7,1.8,3.7,4v29.2Z"/>
          <g>
            <polyline class="st10" points="474 451.3 495 451.3 502.8 431.8 511.4 431.8"/>
            <line class="st10" x1="492.6" y1="447.1" x2="469.7" y2="447.1"/>
            <line class="st10" x1="494.2" y1="443.1" x2="467.3" y2="443.1"/>
            <line class="st10" x1="495.8" y1="439.1" x2="465.7" y2="439.1"/>
            <line class="st10" x1="497.4" y1="435.1" x2="464.4" y2="435.1"/>
            <path class="st10" d="M480.1,456.8c0,1.2-.9,2.1-2,2.1s-2-1-2-2.1.9-2.1,2-2.1,2,1,2,2.1Z"/>
            <path class="st10" d="M494.7,456.8c0,1.2-.9,2.1-2,2.1s-2-1-2-2.1.9-2.1,2-2.1,2,1,2,2.1Z"/>
          </g>
        </g>
        <g>
          <circle class="st10" cx="431.7" cy="450.9" r="10.5"/>
          <circle class="st27" cx="431.7" cy="450.9" r="7.6"/>
        </g>
      </g>
      <g>
        <path class="st25" d="M281.8,368.5c3-9.9,31.3-24.4,31.3-24.4,0,0,4.5-3,7.8,1.5,0,0,10.3-11.1,14.9-14.1,4.5-3,9.1-2.3,10.8-1.5,0,0,9.1-18.1,15.4-19.4s16.6,2.3,18.9,13.1c0,0,4.5-15.4,8.1-18.6,3.5-3.3,12.6-21.2,14.4-25.4,1.8-4.3,5.8-4,8.3-3.3,2.5.8,6.8,3.5,5,15.1s-2.5,20.6-6,30.5-6,17.1-6,17.1c0,0,7.9.5,8.4,9.1s3.9,13.3,4.7,20.1c.8,6.8-1.8,19.6-1,28.7s1.5,14.9-1.3,21.4-19.4,25.2-23.2,33c-3.8,7.8-9.3,15.6-21.2,24.4-11.8,8.8-30.5,43.8-30.5,43.8,0,0-51.1-10.6-68.2-38.3,0,0,14.1-19.6,12.8-34.5s-4.3-21.9-2.8-35.5.5-23.4-.5-26.4-1.7-11.1,0-16.4h0Z"/>
        <path class="st7" d="M404.7,339.2h-.2s2.5-7.3,6-17.1,4.3-18.9,6-30.5c1.8-11.6-2.5-14.4-5-15.1-2.5-.8-6.5-1-8.3,3.3s-10.8,22.2-14.4,25.4-8.1,18.6-8.1,18.6c0,0-3.4,11.8-10.5,19.4"/>
        <path class="st7" d="M404.5,339.1s-2.3,8.3-2.6,13.8c-.4,5.5-.4,13.7-1.4,19.3-2.6,14.6,1,25.6-2.9,37.1"/>
        <path class="st7" d="M320.9,345.6c-3.3-4.5-7.8-1.5-7.8-1.5,0,0-28.3,14.5-31.3,24.4-1.6,5.3-.9,13.3,0,16.4,1,3,2,12.8.5,26.4s1.5,20.6,2.8,35.5-12.8,34.5-12.8,34.5c17.1,27.7,68.2,38.3,68.2,38.3,0,0,18.6-35,30.5-43.8,11.8-8.8,17.4-16.6,21.2-24.4,3.8-7.8,20.4-26.4,23.2-33,2.8-6.5,2-12.3,1.3-21.4s1.8-21.9,1-28.7c-.8-6.8-4.3-11.6-4.7-20.1-.4-8.2-7.5-8.5-8.3-9"/>
        <path class="st7" d="M334.9,345.9c7.2-6.5,11.7-15.9,11.7-15.9,0,0,9.1-18.1,15.4-19.4s16.6,2.3,18.9,13.1"/>
        <path class="st7" d="M346.6,330c-1.8-.8-6.3-1.5-10.8,1.5s-14.9,14.1-14.9,14.1c0,0-8.6,8.6-16.7,12.2"/>
        <path class="st22" d="M271.1,478.3s18.1,28.2,71.5,41.8l-16.1,42.3s-53.9-15.1-80.6-53.4l25.2-30.7h0Z"/>
      </g>
      <g>
        <path class="st22" d="M543,583s33.2,4.9,78.5-26.4l21.3,40s-46.8,30.7-93.2,25.6l-6.6-39.2h0Z"/>
        <path class="st25" d="M550.3,388.9c-2.2-13.8,1.7-32.2,12.8-33.5,6.8-.8,10.3,1,10.1,11.8-.2,7.6,5.9,22.8,7.7,25.6,0,0,7,7.3,26.9,24,6.4,5.4,1.1,26.4,1.1,29.5s.5,15.9-1.5,25.9-11.6,21.4,9.1,87.9c0,0-34.5,24.2-68.2,22.9,0,0-5.3-22.2-9.6-27.7s-13.6-10.1-13.6-27.7,5-23.7,4-30.2h16.4s-3.8-30,.3-42.3,12.1-22.7,11.1-36.3c-1-13.6-4.8-18.9-6.5-30h0Z"/>
        <path class="st7" d="M594.4,447.8c-2.3-12.1-12.1-25.2-11.6-37.8.5-12.6-1.9-17.2-1.9-17.2-1.8-2.8-7.9-18-7.7-25.6.3-10.8-3.3-12.6-10.1-11.8-11.2,1.2-15,19.7-12.8,33.5,1.8,11.1,5.5,16.4,6.5,30s-7,23.9-11.1,36.3-.3,42.3-.3,42.3c0,0,1.3,9.2,7,20.1"/>
        <path class="st7" d="M580.9,392.8s7,7.3,26.9,24c6.4,5.4,1.1,26.4,1.1,29.5s.5,15.9-1.5,25.9-11.6,21.4,9.1,87.9c0,0-34.5,24.2-68.2,22.9,0,0-5.3-22.2-9.6-27.7s-13.6-10.1-13.6-27.7,5-23.7,4-30.2h16.4"/>
      </g>
    </g>
    <polyline class="st7" points="261.4 269.6 261.4 167.7 158.3 127.6"/>
    <g>
      <circle class="st10" cx="94.3" cy="95.1" r="47.7"/>
      <circle class="st14" cx="94.3" cy="95.1" r="52.5"/>
      <circle class="st19" cx="94.3" cy="95.1" r="57.8"/>
      <g>
        <path class="st10" d="M116.5,85.4c.8-10-5.7-19.1-15.2-22.2-9.9-3.1-21.3.9-26.5,10-2.2,3.8-3,8-2.7,12.3.2,2.3.6,4.7,1.2,6.9,1,3.3,2.9,6,4.6,9,2.6,4.9,4.2,12.1,9.3,15.1,3,1.7,7.8,2,11.1,1.1,6.5-1.7,8.4-9.1,11.2-14.4,1.6-3,3.8-5.7,5-8.9,1.1-2.9,1.7-5.9,1.9-9"/>
        <path class="st4" d="M106.9,88.5s-.2-.2-.4-.2c-1.2-.4-2,0-2.9.8-2.3,1.7-2.5-1-3.7-2.3-2.4-2.7-3.8,1.5-5.8,1.5s-3-4.1-5.6-1.8c-1.4,1.2-1.2,3.9-3.7,2.5-1.1-.6-1.6-1.4-3.1-1-.2,0-.3,0-.4.3-.2,0-.3.4-.2.7,2.4,9.5,4.8,19.1,7.2,28.6.2.8,1.3.5,1.1-.3-2.3-9.3-4.7-18.7-7-28,1.9,0,3.5,3.2,5.5.7.4-.5.5-1.1.9-1.6.9-1.3,2-1,2.9,0,.7.8,1.3,1.6,2.4,1.6s1.6-.6,2.2-1.3c1-1.1,2-1.8,3.1-.2.3.4.4,1,.7,1.5,2,2.9,3.7-.3,5.7-.4-2.5,9.3-5,18.6-7.6,27.9-.2.8.9,1.1,1.1.3,2.6-9.5,5.2-19,7.7-28.5,0-.3,0-.6-.3-.7h.2Z"/>
        <path class="st4" d="M86.2,122c5,1.3,10.3,1.3,15.3.2,3.2-.7,2.4-3.2-.6-2.5-4.6,1.1-9.5,1-14.1,0-3-.7-3.8,1.7-.6,2.5h0Z"/>
        <path class="st4" d="M86.2,126.1c5,1.3,10.3,1.3,15.3.2,3.2-.7,2.4-3.2-.6-2.5-4.6,1.1-9.5,1-14.1,0-3-.7-3.8,1.7-.6,2.5h0Z"/>
        <path class="st4" d="M102.5,127.4s-3.5.9-8.7.8-8.6-1.1-8.6-1.1c0,0,.9,7.4,8.5,7.5,7.6,0,8.8-7.3,8.8-7.3h0Z"/>
      </g>
    </g>
    <g>
      <circle class="st8" cx="705.3" cy="201.4" r="47.7" transform="translate(376.5 857) rotate(-79.3)"/>
      <circle class="st12" cx="705.4" cy="201.5" r="52.5"/>
      <circle class="st18" cx="706" cy="201.7" r="57.8"/>
      <g>
        <rect class="st27" x="691.6" y="185.5" width="38.4" height="29.8"/>
        <polyline class="st10" points="686.9 186.5 686.9 170.6 733.8 170.6 733.8 232 686.9 232 686.9 216.7"/>
        <line class="st10" x1="691.6" y1="175.6" x2="730" y2="175.6"/>
        <line class="st10" x1="691.6" y1="180.5" x2="730" y2="180.5"/>
        <line class="st10" x1="691.6" y1="220.3" x2="730" y2="220.3"/>
        <line class="st10" x1="691.6" y1="225.3" x2="730" y2="225.3"/>
      </g>
      <g>
        <path class="st23" d="M709.6,201.5s-10.2,11-22.7,11-22.7-11-22.7-11c0,0,10.2-11,22.7-11s22.7,11,22.7,11Z"/>
        <circle class="st4" cx="686.9" cy="201.5" r="8.8"/>
        <path class="st25" d="M692.9,197.2c-.2.8-.9,1.4-1.7,1.4s-1.8-.8-1.8-1.8.4-1.3,1-1.6c-.3,0-.7-.2-1-.2-2.2,0-4,1.8-4,4s1.8,4,4,4,4-1.8,4-4-.2-1.3-.5-1.9h0Z"/>
      </g>
    </g>
    <g>
      <circle class="st10" cx="685.4" cy="684.1" r="47.7"/>
      <circle class="st14" cx="685.4" cy="684.1" r="52.5"/>
      <circle class="st19" cx="685.4" cy="684.1" r="57.8"/>
      <g>
        <path class="st10" d="M706.1,669.9h-45.3v28.9l25.6-.2c2.4,0,4.3-1.8,4.3-4.1s-.5-2.1-1.2-2.8c2.2-.2,4-1.9,4-4s-.6-2.3-1.5-3c1.7-.6,2.8-2.1,2.8-3.8s-.4-2-1.2-2.8h12.4c2.4,0,4.3-1.8,4.3-4.1s-1.9-4.1-4.3-4.1h.1Z"/>
        <rect class="st10" x="649.2" y="667.7" width="8.1" height="32.9"/>
        <rect class="st10" x="713.1" y="666.7" width="3.7" height="14.7"/>
        <polyline class="st10" points="720.6 684.4 716.9 684.4 716.9 663.7 720.6 663.7"/>
      </g>
    </g>
    <g>
      <circle class="st10" cx="118.3" cy="631.6" r="57.9"/>
      <circle class="st12" cx="118.4" cy="631.6" r="63.9" transform="translate(-411.9 268.7) rotate(-45)"/>
      <circle class="st21" cx="118.3" cy="631.5" r="70.2" transform="translate(-411.9 268.6) rotate(-45)"/>
      <g>
        <path class="st27" d="M154.5,643.9c1.3-3.8,2-7.8,2-11.9.2-21.1-16.7-38.4-37.8-38.6v38.5l35.8,12.1h0Z"/>
        <path class="st10" d="M118.7,593.3c21.1.2,38,17.5,37.8,38.6s-17.5,38-38.6,37.8-38-17.5-37.8-38.6c.2-21.1,17.5-38,38.6-37.8"/>
        <polyline class="st10" points="118.6 599.7 118.6 631.8 140.2 639"/>
        <line class="st10" x1="118.6" y1="661.7" x2="118.6" y2="651.1"/>
        <line class="st10" x1="88.7" y1="631.8" x2="99.3" y2="631.8"/>
        <line class="st10" x1="138" y1="631.8" x2="148.6" y2="631.8"/>
      </g>
    </g>
    <g>
      <rect class="st15" x="332.7" y="35" width="257.3" height="147.8"/>
      <g>
        <circle class="st20" cx="448.6" cy="100.3" r="41.4" transform="translate(60.5 346.6) rotate(-45)"/>
        <polygon class="st26" points="433.5 121.9 433.5 78.6 476.1 100.3 433.5 121.9"/>
      </g>
      <g>
        <line class="st15" x1="377.7" y1="161.2" x2="520.2" y2="161.2"/>
        <g>
          <path class="st25" d="M403.1,165.6c0,.7-.5,1.2-1.2,1.2h-13.6c-.7,0-1.2-.6-1.2-1.2v-9.9c0-.7.5-1.2,1.2-1.2h13.6c.7,0,1.2.6,1.2,1.2v9.9Z"/>
          <path class="st26" d="M403.1,165.6c0,.7-.5,1.2-1.2,1.2h-13.6c-.7,0-1.2-.6-1.2-1.2v-9.9c0-.7.5-1.2,1.2-1.2h13.6c.7,0,1.2.6,1.2,1.2v9.9Z"/>
        </g>
      </g>
      <g>
        <line class="st5" x1="343.6" y1="42.9" x2="379.6" y2="42.9"/>
        <line class="st5" x1="343.6" y1="50.2" x2="379.6" y2="50.2"/>
        <line class="st5" x1="343.6" y1="57.6" x2="379.6" y2="57.6"/>
        <line class="st5" x1="343.6" y1="64.9" x2="379.6" y2="64.9"/>
        <line class="st5" x1="343.6" y1="72.2" x2="379.6" y2="72.2"/>
        <line class="st5" x1="343.6" y1="79.6" x2="379.6" y2="79.6"/>
      </g>
      <path class="st27" d="M582.7,68.5c0,1.1-.9,2-2,2h-39.7c-1.1,0-2-.9-2-2v-23.6c0-1.1.9-2,2-2h39.7c1.1,0,2,.9,2,2v23.6Z"/>
      <path class="st27" d="M582.7,103.9c0,1.1-.9,2-2,2h-39.7c-1.1,0-2-.9-2-2v-23.6c0-1.1.9-2,2-2h39.7c1.1,0,2,.9,2,2v23.6Z"/>
      <path class="st27" d="M582.7,139.4c0,1.1-.9,2-2,2h-39.7c-1.1,0-2-.9-2-2v-23.6c0-1.1.9-2,2-2h39.7c1.1,0,2,.9,2,2v23.6Z"/>
    </g>
    <polyline class="st7" points="481.3 334.4 635 334.4 681.9 260.5"/>
    <g>
      <g>
        <g>
          <line class="st15" x1="58" y1="281.9" x2="136.8" y2="281.9"/>
          <line class="st15" x1="58" y1="291.9" x2="136.8" y2="291.9"/>
          <line class="st15" x1="58" y1="301.9" x2="136.8" y2="301.9"/>
          <line class="st15" x1="58" y1="311.9" x2="136.8" y2="311.9"/>
          <line class="st15" x1="58" y1="321.9" x2="136.8" y2="321.9"/>
          <line class="st15" x1="58" y1="331.9" x2="136.8" y2="331.9"/>
        </g>
        <path class="st15" d="M117.1,260.5h-39.5c-22,0-40,18-40,40v13.6c0,22,18,40,40,40h19.8s.6,19.9,21.6,21.4c0,0-10.2-13-1.8-21.4,22,0,40-18,40-40v-13.6c0-22-18-40-40-40h0Z"/>
      </g>
      <g>
        <path class="st27" d="M97.9,393.2c0,8.2-6.6,14.8-14.8,14.8s-14.8-6.6-14.8-14.8,6.6-14.8,14.8-14.8,14.8,6.6,14.8,14.8Z"/>
        <g>
          <g>
            <path class="st26" d="M89.8,447.1s7.9,9.7,28.1,9.7,28.8-7.4,28.8-7.4c0,0-.8-26-28.5-26s-28.5,23.7-28.5,23.7h.1Z"/>
            <path class="st27" d="M104.8,422.3c-3.2-5.8-9.5-11.6-21.8-11.6-20.4,0-25.1,20.9-25.1,20.9,0,0,7,8.6,24.8,8.6s3.7,0,5.4-.2c2.8-6.4,8.2-13.7,16.7-17.7h0Z"/>
          </g>
          <circle class="st26" cx="118.3" cy="403.5" r="16.8"/>
        </g>
      </g>
    </g>
    <g>
      <polygon class="st26" points="412.2 599.4 324.6 599.1 362.4 633.8 412.2 599.4"/>
      <g>
        <path class="st26" d="M360.9,642.5l-46.4-42.5-7.1,39.3h31c.8,0,1.5.8,1.5,1.6s-.7,1.5-1.5,1.5h-31.5c0,0-1.3,6.9-1.3,6.9h27.8c.8,0,1.5.8,1.5,1.6s-.7,1.5-1.5,1.5h-28.3c0,0-1.3,6.9-1.3,6.9h24.5c.8,0,1.5.8,1.5,1.6s-.7,1.5-1.5,1.5h-25l-1.3,6.9,107.4.4,12.5-69.2-61,42.1h0Z"/>
        <path class="st26" d="M275.9,659.5c-.8,0-1.5.7-1.5,1.5s.7,1.5,1.5,1.5h27.5l.5-3h-28Z"/>
        <path class="st26" d="M280.9,649.5c-.8,0-1.5.7-1.5,1.5s.7,1.5,1.5,1.5h24.3l.5-3h-24.8Z"/>
        <path class="st26" d="M285.9,639.5c-.8,0-1.5.7-1.5,1.5s.7,1.5,1.5,1.5h21l.5-3h-21.6.1Z"/>
      </g>
    </g>
    <polyline class="st7" points="431.7 450.9 431.7 556.6 401.1 589.6"/>
    <g>
      <g>
        <path class="st15" d="M349.7,684.1s-.1.9-.6,2.4"/>
        <path class="st17" d="M346.7,692.9c-6.3,13.1-25.3,37.4-81,48.9-64.4,13.3-106.5-5.8-120.4-13.7"/>
        <path class="st15" d="M142.3,726.4c-1.4-.9-2.1-1.4-2.1-1.4"/>
      </g>
      <polyline class="st15" points="132 730.6 135.1 718.6 148.4 719.8"/>
    </g>
    <path class="st6" d="M89.8,550.3s-23.9-34.3-9.8-77.1"/>
    <path class="st6" d="M93.8,248.7s45.2-36.7,31.2-87.5"/>
    <path class="st6" d="M158.3,78.6s73.4-40.8,164,.9"/>
    <polyline class="st7" points="486.3 463.3 486.3 689.5 616.6 689.5"/>
    <g>
      <path class="st6" d="M705.5,275.9s67.5,159.1,0,334.1"/>
      <polyline class="st15" points="695.7 285.5 702 269.6 718.9 275.9"/>
    </g>
    <path class="st6" d="M601.7,89.3s54.5-3.9,69.3,52"/>
    <g>
      <circle class="st26" cx="234.8" cy="102" r="20.2"/>
      <circle class="st13" cx="234.8" cy="102" r="17.2"/>
      <g class="st2">
        <text class="st1" transform="translate(230.3 112.1)"><tspan x="0" y="0">1</tspan></text>
      </g>
    </g>
    <g>
      <circle class="st4" cx="132.4" cy="511.8" r="20.2"/>
      <circle class="st13" cx="132.4" cy="511.8" r="17.2"/>
      <g class="st2">
        <text class="st1" transform="translate(123.2 521.9)"><tspan x="0" y="0">3</tspan></text>
      </g>
    </g>
    <g>
      <circle class="st27" cx="691.6" cy="451.3" r="20.2"/>
      <circle class="st16" cx="691.7" cy="451.4" r="17.2"/>
      <g class="st2">
        <text class="st3" transform="translate(682.6 461.4)"><tspan x="0" y="0">4</tspan></text>
      </g>
    </g>
    <g>
      <circle class="st11" cx="675.5" cy="72.2" r="20.2" transform="translate(24.8 267.4) rotate(-22.8)"/>
      <circle class="st9" cx="675.7" cy="72.8" r="17.2" transform="translate(24.2 266.4) rotate(-22.7)"/>
      <g class="st2">
        <text class="st0" transform="translate(666.3 82.3)"><tspan x="0" y="0">2</tspan></text>
      </g>
    </g>
  </g>
</svg>