<?xml version="1.0" encoding="UTF-8"?>
<svg id="Layer_1" xmlns="http://www.w3.org/2000/svg" version="1.1" viewBox="0 0 500 500">
  <!-- Generator: Adobe Illustrator 29.1.0, SVG Export Plug-In . SVG Version: 2.1.0 Build 142)  -->
  <defs>
    <style>
      .st0 {
        fill: #ebb376;
      }

      .st1 {
        fill: #ba4d3c;
      }

      .st2, .st3, .st4, .st5 {
        opacity: .5;
      }

      .st2, .st4, .st6 {
        fill: #fafafa;
      }

      .st7 {
        opacity: .9;
      }

      .st7, .st8, .st9, .st10, .st11, .st12, .st3, .st4, .st13, .st14 {
        isolation: isolate;
      }

      .st7, .st15, .st9, .st10, .st11, .st3, .st13 {
        fill: #fff;
      }

      .st8, .st16 {
        fill: #407bff;
      }

      .st8, .st14 {
        opacity: .2;
      }

      .st17 {
        fill: #263238;
      }

      .st18 {
        fill: #2d5629;
      }

      .st19 {
        fill: #ce7a63;
      }

      .st20 {
        fill: #f0f0f0;
      }

      .st9 {
        opacity: .6;
      }

      .st21 {
        stroke-miterlimit: 10;
      }

      .st21, .st22 {
        fill: none;
        stroke: #263238;
      }

      .st10 {
        opacity: .3;
      }

      .st11 {
        opacity: .4;
      }

      .st23 {
        fill: #9e1b38;
      }

      .st24 {
        fill: #e0e0e0;
      }

      .st25 {
        fill: #446941;
      }

      .st26 {
        fill: #2d5629;
      }

      .st12 {
        opacity: .1;
      }

      .st27 {
        fill: #e4897b;
      }

      .st13 {
        opacity: .7;
      }

      .st28 {
        display: none;
      }

      .st29 {
        fill: #ebebeb;
      }

      .st30 {
        fill: #de5753;
      }

      .st31, .st32 {
        fill: #f5f5f5;
      }

      .st33 {
        fill: #3c180a;
      }

      .st32 {
        opacity: .3;
      }

      .st22 {
        stroke-linecap: round;
        stroke-linejoin: round;
        stroke-width: .4px;
      }

      .st34 {
        fill: #dc897c;
      }

      .st35 {
        fill: #e6e6e6;
      }
    </style>
  </defs>
  <rect class="st23" width="500" height="500"/>
  <g id="Background_Complete">
    <g>
      <g>
        <g>
          <rect class="st2" x="89.4" y="102.4" width="71.3" height="241.7"/>
          <g class="st5">
            <polygon class="st31" points="150.1 102.4 145.9 102.4 121 344.1 125.2 344.1 150.1 102.4"/>
          </g>
          <rect class="st24" x="89" y="103.3" width="70.4" height="2.1"/>
          <rect class="st29" x="89" y="342" width="70.4" height="4.6"/>
          <g>
            <rect class="st29" x="91.7" y="346.3" width="66.6" height=".2"/>
            <polygon class="st29" points="91.7 103.3 158.2 103.3 158.2 346.3 162.2 346.3 162.2 100.3 87.7 100.3 87.7 346.3 91.7 346.3 91.7 103.3"/>
          </g>
        </g>
        <g>
          <rect class="st2" x="168.7" y="102.4" width="71.3" height="241.7"/>
          <g class="st5">
            <polygon class="st31" points="220.2 102.4 197.5 102.4 172.6 344.1 195.3 344.1 220.2 102.4"/>
          </g>
          <rect class="st24" x="168.2" y="103.3" width="72.4" height="2.1"/>
          <rect class="st29" x="168.2" y="342" width="72.4" height="4.6"/>
          <g>
            <rect class="st29" x="170.9" y="346.3" width="66.6" height=".2"/>
            <polygon class="st29" points="170.9 103.3 237.5 103.3 237.5 346.3 241.5 346.3 241.5 100.3 167 100.3 167 346.3 170.9 346.3 170.9 103.3"/>
          </g>
        </g>
        <g>
          <rect class="st2" x="248" y="102.4" width="69.3" height="241.7"/>
          <g class="st5">
            <polygon class="st31" points="287.2 102.4 283.1 102.4 258.2 344.1 262.4 344.1 287.2 102.4"/>
          </g>
          <rect class="st24" x="247.5" y="103.3" width="70.4" height="2.1"/>
          <rect class="st29" x="247.5" y="342" width="70.4" height="4.6"/>
          <g>
            <rect class="st29" x="250.2" y="346.3" width="66.6" height=".2"/>
            <polygon class="st29" points="250.2 103.3 316.8 103.3 316.8 346.3 320.8 346.3 320.8 100.3 246.2 100.3 246.2 346.3 250.2 346.3 250.2 103.3"/>
          </g>
        </g>
        <g>
          <rect class="st2" x="327.3" y="102.4" width="71.3" height="241.7"/>
          <g class="st5">
            <polygon class="st31" points="391.6 102.4 368.8 102.4 344 344.1 366.7 344.1 391.6 102.4"/>
          </g>
          <rect class="st24" x="326.8" y="103.3" width="70.4" height="2.1"/>
          <rect class="st29" x="326.8" y="342" width="70.4" height="4.6"/>
          <g>
            <polygon class="st29" points="329.5 103.3 396.1 103.3 396.1 346.3 400.1 346.3 400.1 100.3 325.5 100.3 325.5 346.3 329.5 346.3 329.5 103.3"/>
            <rect class="st29" x="329.5" y="346.3" width="66.6" height=".2"/>
          </g>
        </g>
        <g>
          <rect class="st29" x="107.7" y="288.5" width="30.9" height="53.5"/>
          <polygon class="st29" points="132.7 281 132.7 294.4 130.2 294.4 116.1 294.4 113.6 294.4 113.6 281 132.7 281"/>
          <rect class="st6" x="132.7" y="290.5" width="4" height="4"/>
          <rect class="st6" x="125" y="290.5" width="4" height="4"/>
          <rect class="st6" x="117.3" y="290.5" width="4" height="4"/>
          <rect class="st20" x="109.7" y="290.5" width="4" height="4"/>
          <rect class="st20" x="132.7" y="297.7" width="4" height="4"/>
          <rect class="st20" x="125" y="297.7" width="4" height="4"/>
          <rect class="st6" x="117.3" y="297.7" width="4" height="4"/>
          <rect class="st6" x="109.7" y="297.7" width="4" height="4"/>
          <rect class="st20" x="132.7" y="304.9" width="4" height="4"/>
          <rect class="st6" x="125" y="304.9" width="4" height="4"/>
          <rect class="st6" x="117.3" y="304.9" width="4" height="4"/>
          <rect class="st6" x="125" y="284.2" width="4" height="4"/>
          <rect class="st20" x="117.3" y="284.2" width="4" height="4"/>
          <rect class="st20" x="109.7" y="304.9" width="4" height="4"/>
          <rect class="st6" x="132.7" y="312.1" width="4" height="4"/>
          <rect class="st20" x="125" y="312.1" width="4" height="4"/>
          <rect class="st20" x="117.3" y="312.1" width="4" height="4"/>
          <rect class="st6" x="109.7" y="312.1" width="4" height="4"/>
          <rect class="st20" x="132.7" y="319.3" width="4" height="4"/>
          <rect class="st6" x="125" y="319.3" width="4" height="4"/>
          <rect class="st6" x="117.3" y="319.3" width="4" height="4"/>
          <rect class="st20" x="109.7" y="319.3" width="4" height="4"/>
          <rect class="st20" x="132.7" y="326.4" width="4" height="4"/>
          <rect class="st6" x="125" y="326.4" width="4" height="4"/>
          <rect class="st20" x="117.3" y="326.4" width="4" height="4"/>
          <rect class="st6" x="109.7" y="326.4" width="4" height="4"/>
          <rect class="st6" x="132.7" y="333.6" width="4" height="4"/>
          <rect class="st6" x="125" y="333.6" width="4" height="4"/>
          <rect class="st20" x="117.3" y="333.6" width="4" height="4"/>
          <rect class="st20" x="109.7" y="333.6" width="4" height="4"/>
        </g>
        <g>
          <rect class="st29" x="282.1" y="288.5" width="30.9" height="53.5"/>
          <polygon class="st29" points="307.1 281 307.1 294.4 304.6 294.4 290.5 294.4 288 294.4 288 281 307.1 281"/>
          <rect class="st6" x="307.1" y="290.5" width="4" height="4"/>
          <rect class="st6" x="299.4" y="290.5" width="4" height="4"/>
          <rect class="st6" x="291.7" y="290.5" width="4" height="4"/>
          <rect class="st20" x="284.1" y="290.5" width="4" height="4"/>
          <rect class="st20" x="307.1" y="297.7" width="4" height="4"/>
          <rect class="st20" x="299.4" y="297.7" width="4" height="4"/>
          <rect class="st6" x="291.7" y="297.7" width="4" height="4"/>
          <rect class="st6" x="284.1" y="297.7" width="4" height="4"/>
          <rect class="st20" x="307.1" y="304.9" width="4" height="4"/>
          <rect class="st6" x="299.4" y="304.9" width="4" height="4"/>
          <rect class="st6" x="291.7" y="304.9" width="4" height="4"/>
          <rect class="st6" x="299.4" y="284.2" width="4" height="4"/>
          <rect class="st20" x="291.7" y="284.2" width="4" height="4"/>
          <rect class="st20" x="284.1" y="304.9" width="4" height="4"/>
          <rect class="st6" x="307.1" y="312.1" width="4" height="4"/>
          <rect class="st20" x="299.4" y="312.1" width="4" height="4"/>
          <rect class="st20" x="291.7" y="312.1" width="4" height="4"/>
          <rect class="st6" x="284.1" y="312.1" width="4" height="4"/>
          <rect class="st20" x="307.1" y="319.3" width="4" height="4"/>
          <rect class="st6" x="299.4" y="319.3" width="4" height="4"/>
          <rect class="st6" x="291.7" y="319.3" width="4" height="4"/>
          <rect class="st20" x="284.1" y="319.3" width="4" height="4"/>
          <rect class="st20" x="307.1" y="326.4" width="4" height="4"/>
          <rect class="st6" x="299.4" y="326.4" width="4" height="4"/>
          <rect class="st20" x="291.7" y="326.4" width="4" height="4"/>
          <rect class="st6" x="284.1" y="326.4" width="4" height="4"/>
          <rect class="st6" x="307.1" y="333.6" width="4" height="4"/>
          <rect class="st6" x="299.4" y="333.6" width="4" height="4"/>
          <rect class="st20" x="291.7" y="333.6" width="4" height="4"/>
          <rect class="st20" x="284.1" y="333.6" width="4" height="4"/>
        </g>
        <g>
          <rect class="st20" x="334.4" y="308" width="27.7" height="34"/>
          <polygon class="st35" points="336.8 311.7 343.3 311.7 345.1 311.7 346.8 311.7 346.8 315.3 345.1 315.3 343.3 315.3 336.8 315.3 336.8 311.7"/>
          <polygon class="st6" points="336.8 318.6 343.3 318.6 345.1 318.6 346.8 318.6 346.8 322.2 345.1 322.2 343.3 322.2 336.8 322.2 336.8 318.6"/>
          <polygon class="st35" points="336.8 325.5 343.3 325.5 345.1 325.5 346.8 325.5 346.8 329 345.1 329 343.3 329 336.8 329 336.8 325.5"/>
          <polygon class="st6" points="336.8 332.4 343.3 332.4 346 332.4 346.8 332.4 346.8 335.9 346 335.9 343.3 335.9 336.8 335.9 336.8 332.4"/>
          <polygon class="st6" points="349.7 311.7 356.2 311.7 358 311.7 359.7 311.7 359.7 315.3 358 315.3 356.2 315.3 349.7 315.3 349.7 311.7"/>
          <polygon class="st6" points="349.7 318.6 356.2 318.6 358.7 318.6 359.7 318.6 359.7 322.2 358.7 322.2 356.2 322.2 349.7 322.2 349.7 318.6"/>
          <polygon class="st35" points="349.7 325.5 356.2 325.5 358 325.5 359.7 325.5 359.7 329 358 329 356.2 329 349.7 329 349.7 325.5"/>
          <polygon class="st6" points="349.7 332.4 356.2 332.4 358 332.4 359.7 332.4 359.7 335.9 358 335.9 356.2 335.9 349.7 335.9 349.7 332.4"/>
        </g>
        <g>
          <rect class="st20" x="204.8" y="320.8" width="25.2" height="21.1"/>
          <rect class="st6" x="225.1" y="323.5" width="3.2" height="3.2"/>
          <rect class="st6" x="218.9" y="323.5" width="3.2" height="3.2"/>
          <rect class="st6" x="212.7" y="323.5" width="3.2" height="3.2"/>
          <rect class="st6" x="206.4" y="323.5" width="3.2" height="3.2"/>
          <rect class="st6" x="225.1" y="329.3" width="3.2" height="3.2"/>
          <rect class="st6" x="218.9" y="329.3" width="3.2" height="3.2"/>
          <rect class="st6" x="212.7" y="329.3" width="3.2" height="3.2"/>
          <rect class="st35" x="206.4" y="329.3" width="3.2" height="3.2"/>
          <rect class="st35" x="225.1" y="335.2" width="3.2" height="3.2"/>
          <rect class="st35" x="218.9" y="335.2" width="3.2" height="3.2"/>
          <rect class="st6" x="212.7" y="335.2" width="3.2" height="3.2"/>
          <rect class="st35" x="206.4" y="335.2" width="3.2" height="3.2"/>
        </g>
        <g>
          <rect class="st20" x="254.3" y="320.8" width="25.2" height="21.1"/>
          <rect class="st6" x="274.6" y="323.5" width="3.2" height="3.2"/>
          <rect class="st6" x="268.4" y="323.5" width="3.2" height="3.2"/>
          <rect class="st6" x="262.1" y="323.5" width="3.2" height="3.2"/>
          <rect class="st6" x="255.9" y="323.5" width="3.2" height="3.2"/>
          <rect class="st6" x="274.6" y="329.3" width="3.2" height="3.2"/>
          <rect class="st6" x="268.4" y="329.3" width="3.2" height="3.2"/>
          <rect class="st6" x="262.1" y="329.3" width="3.2" height="3.2"/>
          <rect class="st35" x="255.9" y="329.3" width="3.2" height="3.2"/>
          <rect class="st35" x="274.6" y="335.2" width="3.2" height="3.2"/>
          <rect class="st35" x="268.4" y="335.2" width="3.2" height="3.2"/>
          <rect class="st6" x="262.1" y="335.2" width="3.2" height="3.2"/>
          <rect class="st35" x="255.9" y="335.2" width="3.2" height="3.2"/>
        </g>
        <g>
          <rect class="st20" x="176.2" y="305.2" width="25.2" height="36.8"/>
          <rect class="st6" x="190.3" y="306.8" width="9.5" height="9.1"/>
          <rect class="st6" x="177.8" y="306.8" width="9.5" height="9.1"/>
          <rect class="st6" x="190.3" y="318.5" width="9.5" height="9.1"/>
          <rect class="st6" x="177.8" y="318.5" width="9.5" height="9.1"/>
          <rect class="st6" x="190.3" y="330.3" width="9.5" height="9.1"/>
          <rect class="st6" x="177.8" y="330.3" width="9.5" height="9.1"/>
        </g>
        <g>
          <rect class="st20" x="366.3" y="305.2" width="25.2" height="36.8"/>
          <rect class="st6" x="380.4" y="306.8" width="9.5" height="9.1"/>
          <rect class="st6" x="368" y="306.8" width="9.5" height="9.1"/>
          <rect class="st6" x="380.4" y="318.5" width="9.5" height="9.1"/>
          <rect class="st6" x="368" y="318.5" width="9.5" height="9.1"/>
          <rect class="st6" x="380.4" y="330.3" width="9.5" height="9.1"/>
          <rect class="st6" x="368" y="330.3" width="9.5" height="9.1"/>
        </g>
      </g>
      <g>
        <path class="st26" d="M76.3,355.1s-5.1-11,.7-21.9,7.5-13.5,3.8-15.7c-3.7-2.2-5.4,8.7-5.4,8.7,0,0-3.1-7.5-.5-15.4s4.2-20.7.7-22.1c-3.5-1.4-.7,16-3.7,21.9,0,0-2.6-6.6-3-12.9-.4-6.3.2-16.4-2.5-19-2.8-2.6-4.5-.8-1.8,13.2s2.7,25.3,2.7,25.3c0,0-6-18.3-10-18.9s-4,5.4-.6,10.5c3.5,5.1,10.1,14.4,11.2,19.1,0,0-6.6-13.8-12.5-9.6-5.9,4.2,5.2,12.6,10.1,15.6s8.4,21.9,8.4,21.9l2.5-.7Z"/>
        <path class="st25" d="M72.3,359.6s4.9-11.1-1-21.9c-5.9-10.8-7.6-13.3-4-15.6,3.7-2.3,5.5,8.6,5.5,8.6,0,0,3-7.6.4-15.4-2.7-7.8-4.4-20.6-.9-22.1,3.5-1.4.9,16,4,21.9,0,0,2.5-6.6,2.8-13s-.4-16.4,2.3-19.1c2.7-2.6,4.5-.9,2,13.1s-2.4,25.4-2.4,25.4c0,0,5.8-18.4,9.8-19,4-.6,4.1,5.3.7,10.5-3.4,5.2-9.9,14.5-11,19.3,0,0,6.4-13.9,12.4-9.7,6,4.1-5,12.6-9.9,15.7-4.9,3.1-8.1,22-8.1,22l-2.6-.7Z"/>
        <polygon class="st29" points="95 351.7 54.3 351.7 57.6 380.9 91.7 380.9 95 351.7"/>
      </g>
      <g>
        <path class="st33" d="M400.3,349.6c.1-1,3.5-24.3-3.2-32.3-1.5-1.8-3.4-2.7-5.6-2.8-13.7-.3-15.5,10.6-15.5,10.8l1.6.2c0-.4,1.7-9.7,13.9-9.4,1.8,0,3.2.8,4.4,2.2,6.3,7.5,2.9,30.8,2.9,31l1.6.2Z"/>
        <path class="st33" d="M401.2,348.6h1.6c0-.3-.5-21.5,9.9-25.9,10.3-4.3,14.9,4.5,15.1,4.9l1.5-.7c0-.1-5.5-10.6-17.2-5.7-11.5,4.8-11,26.5-10.9,27.4Z"/>
        <path class="st33" d="M401.1,350.2c0-.3,0-34,6.7-43.8,6.3-9.4,16.4-5,16.9-4.8l.7-1.5c-.1,0-11.8-5.2-18.9,5.4-6.8,10.2-6.9,43.3-6.9,44.7h1.6Z"/>
        <path class="st18" d="M389.5,315.3s6,2.2,4.2,7.4c-1.8,5.2-20.6,13.7-20.6,13.7,0,0-7.9-7.2-.6-19,7.3-11.8,16.9-5.8,17.1-2.1Z"/>
        <path class="st26" d="M408.1,304.7s-4.2-.5-3.9-3c.3-2.6,16.5-9.2,26,1.5,0,0-6.1,10.5-14.9,10.6-8.8.1-7.2-9.1-7.2-9.1Z"/>
        <path class="st18" d="M412.4,321.9s-2.9-2.4.2-3.5c3.2-1.2,18.6-.8,18.8,14.5,0,0-18,3-20.3-2.8-2.2-5.8,1.2-8.1,1.2-8.1Z"/>
        <polygon class="st29" points="386.3 380.9 414.3 380.9 417.3 350.2 383.3 350.2 386.3 380.9"/>
        <rect class="st24" x="381.8" y="346.9" width="37" height="6.8"/>
      </g>
    </g>
  </g>
  <g id="Background_Simple" class="st28">
    <g>
      <path class="st16" d="M96.3,114.1c27.9-59.4,127.1-51.1,165.3-9.3,38.3,41.8,50.7,68.6,85.2,53s78.5-11.4,81,38.2-37.9,108.3-102.1,125.6-64.2,78.8-149.1,66.4c-46.3-6.8-47.4-56.9-40.8-98.3,6.5-41.4-71.9-106.6-39.6-175.6Z"/>
      <path class="st7" d="M96.3,114.1c27.9-59.4,127.1-51.1,165.3-9.3,38.3,41.8,50.7,68.6,85.2,53s78.5-11.4,81,38.2-37.9,108.3-102.1,125.6-64.2,78.8-149.1,66.4c-46.3-6.8-47.4-56.9-40.8-98.3,6.5-41.4-71.9-106.6-39.6-175.6Z"/>
    </g>
  </g>
  <g id="Shadow">
    <ellipse id="_x3C_Path_x3E_" class="st32" cx="250" cy="416.2" rx="193.9" ry="11.3"/>
  </g>
  <g id="Interface">
    <g>
      <rect class="st16" x="123.3" y="161.2" width="231.8" height="170.4"/>
      <rect class="st13" x="123.3" y="161.2" width="231.8" height="170.4"/>
      <rect class="st16" x="123.3" y="161.2" width="231.8" height="10.4"/>
      <circle class="st13" cx="348.7" cy="166.4" r="2.8"/>
      <circle class="st13" cx="340.5" cy="166.4" r="2.8"/>
      <circle class="st13" cx="332.3" cy="166.4" r="2.8"/>
      <rect class="st12" x="125.2" y="174.7" width="71.2" height="152.4"/>
      <rect class="st12" x="198.5" y="174.7" width="155.2" height="152.4"/>
    </g>
    <g>
      <rect class="st14" x="229.7" y="186.2" width="93.5" height="66.6"/>
      <rect class="st16" x="225.8" y="181.3" width="93.5" height="66.6"/>
      <rect class="st3" x="225.8" y="181.3" width="93.5" height="66.6"/>
      <rect class="st13" x="227.1" y="193.5" width="90.7" height="53"/>
      <rect class="st16" x="225.8" y="181.3" width="93.5" height="10.4"/>
      <circle class="st13" cx="312.8" cy="186.5" r="2.8"/>
      <circle class="st13" cx="304.6" cy="186.5" r="2.8"/>
      <path class="st13" d="M299.2,186.5c0,1.6-1.3,2.8-2.8,2.8s-2.8-1.3-2.8-2.8,1.3-2.8,2.8-2.8c1.5,0,2.8,1.3,2.8,2.8Z"/>
      <polygon class="st8" points="227.1 233.3 252.9 217.8 271.7 228.1 300.5 209.9 317.8 222.9 317.8 246.5 227.1 246.5 227.1 233.3"/>
      <path class="st15" d="M253.4,207.6c0,3.9-3.1,7-7,7s-7-3.1-7-7,3.1-7,7-7,7,3.1,7,7Z"/>
      <rect class="st14" x="225.8" y="239.5" width="9.9" height="8.4"/>
    </g>
    <g>
      <rect class="st14" x="243" y="284.2" width="93.5" height="47"/>
      <rect class="st16" x="247.8" y="286.6" width="93.5" height="66.6"/>
      <rect class="st3" x="247.8" y="286.6" width="93.5" height="66.6"/>
      <rect class="st13" x="249.2" y="298.8" width="90.7" height="53"/>
      <path class="st17" d="M289.7,306.2l-7.2,21.7h-4.3l-5.4-16-5.5,16h-4.3l-7.2-21.7h4.2l5.4,16.5,5.6-16.5h3.7l5.5,16.6,5.5-16.6h3.8Z"/>
      <rect class="st16" x="247.8" y="286.6" width="93.5" height="10.4"/>
      <path class="st13" d="M337.7,291.8c0,1.5-1.3,2.8-2.8,2.8s-2.8-1.3-2.8-2.8,1.3-2.8,2.8-2.8,2.8,1.3,2.8,2.8Z"/>
      <path class="st13" d="M329.5,291.8c0,1.5-1.3,2.8-2.8,2.8s-2.8-1.3-2.8-2.8,1.3-2.8,2.8-2.8,2.8,1.3,2.8,2.8Z"/>
      <path class="st13" d="M321.3,291.8c0,1.5-1.3,2.8-2.8,2.8s-2.8-1.3-2.8-2.8,1.3-2.8,2.8-2.8,2.8,1.3,2.8,2.8Z"/>
      <g>
        <line class="st21" x1="294" y1="307.2" x2="333.1" y2="307.2"/>
        <line class="st21" x1="294" y1="312.4" x2="333.1" y2="312.4"/>
        <line class="st21" x1="294" y1="317.5" x2="333.1" y2="317.5"/>
        <line class="st21" x1="294" y1="322.7" x2="333.1" y2="322.7"/>
        <line class="st21" x1="294" y1="327.8" x2="333.1" y2="327.8"/>
        <line class="st21" x1="256" y1="333" x2="333.1" y2="333"/>
        <line class="st21" x1="256" y1="338.1" x2="333.1" y2="338.1"/>
        <line class="st21" x1="256" y1="343.3" x2="333.1" y2="343.3"/>
      </g>
    </g>
    <g>
      <rect class="st14" x="136.8" y="248.9" width="93.5" height="66.6"/>
      <rect class="st16" x="140.8" y="241.9" width="93.5" height="66.6"/>
      <rect class="st3" x="140.8" y="241.9" width="93.5" height="66.6"/>
      <rect class="st13" x="142.2" y="254.1" width="90.7" height="53"/>
      <g>
        <path class="st17" d="M177.1,274.8l-14.4,5.4,14.4,5.4v4.3l-19.3-7.5v-4.5l19.3-7.5v4.3Z"/>
        <path class="st17" d="M192.3,259.6h4.7l-13.8,39.4h-4.7l13.8-39.4Z"/>
        <path class="st17" d="M217.3,277.9v4.5l-19.3,7.5v-4.3l14.4-5.4-14.4-5.4v-4.3l19.3,7.5Z"/>
      </g>
      <rect class="st16" x="140.8" y="241.9" width="93.5" height="10.4"/>
      <path class="st13" d="M230.7,247.1c0,1.6-1.3,2.8-2.8,2.8s-2.8-1.3-2.8-2.8,1.3-2.8,2.8-2.8,2.8,1.3,2.8,2.8Z"/>
      <path class="st13" d="M222.5,247.1c0,1.6-1.3,2.8-2.8,2.8s-2.8-1.3-2.8-2.8,1.3-2.8,2.8-2.8,2.8,1.3,2.8,2.8Z"/>
      <path class="st13" d="M214.3,247.1c0,1.6-1.3,2.8-2.8,2.8s-2.8-1.3-2.8-2.8,1.3-2.8,2.8-2.8,2.8,1.3,2.8,2.8Z"/>
    </g>
  </g>
  <g id="Character_1">
    <g>
      <path class="st19" d="M111,321l2.9.2c1,0,2,.1,3,.1,2,0,4,0,6,0,2,0,4-.2,5.9-.4,1.9-.2,3.8-.5,5.7-.9l-.8.4c.4-.2.7-.3,1.1-.6.4-.3.8-.5,1.2-.8.8-.6,1.7-1.2,2.6-1.9,1.7-1.3,3.4-2.7,5.1-4.1l5.2-4.3,5.2-4.3c1-.8,2.5-.7,3.4.3.7.9.7,2.1,0,3-1.4,1.9-2.8,3.6-4.3,5.4-1.5,1.8-3,3.5-4.5,5.2-1.6,1.7-3.2,3.4-4.9,5-.9.8-1.7,1.6-2.7,2.4-.4.4-1,.8-1.5,1.2-.5.4-1.2.8-1.8,1.2-.2.1-.3.2-.5.2h-.4c-2.3.8-4.5,1.4-6.8,1.8-2.3.4-4.5.7-6.8.8-2.3.1-4.5.2-6.7.1-1.1,0-2.2,0-3.4-.2-1.1,0-2.2-.2-3.4-.3-2.6-.4-4.5-2.8-4.1-5.4.3-2.5,2.6-4.3,5.1-4.2h.2Z"/>
      <path class="st16" d="M124.1,335.5l-3.3.8-4.2,1s-.9-.8-2.3-2.1c-3.4-3.2-9.8-9.2-11.8-12.1,5.8-3.8,8.5-2.3,19.7-2.2,2.8,3.3,1.9,14.5,1.9,14.5Z"/>
      <path class="st14" d="M120.8,336.3l-4.2,1s-.9-.8-2.3-2.1c-.1-1.5-.2-3,0-4.7,0,0,4.1,1.6,6.6,5.8Z"/>
      <path class="st17" d="M79.5,289.8s4.4-8.1,16.2-7.3c11.8.8,16.1,20.5,12.2,28.9,0,0-12.7,2.3-25.4,8.7,0,0-8.7-12.9-8.1-21.9.6-9,5.1-8.4,5.1-8.4Z"/>
      <g>
        <path class="st17" d="M120.7,370.4l4.8,8.4c12.8-3,53.9-9.2,58.9,4.8,6.3,17.5-39,31.5-64.1,32.3-25.1.9-46.9-5.1-31.1-41.7l31.5-3.9Z"/>
        <path class="st14" d="M120.7,370.4l4.8,8.4c12.8-3,53.9-9.2,58.9,4.8,6.3,17.5-39,31.5-64.1,32.3-25.1.9-46.9-5.1-31.1-41.7l31.5-3.9Z"/>
      </g>
      <path class="st17" d="M177.2,408.4c0,0-.1,0-.2,0,0,0,0-.1,0-.2,0-.3.9-2.7,1.8-2.9.2,0,.4,0,.5.1.2.2.4.5.3.8-.1.5-.4.8-.8,1.1-.5.4-1,.7-1.5,1ZM177.4,407.9c.8-.3,1.4-1,1.8-1.7,0-.2,0-.4-.2-.6,0,0-.1,0-.2,0,0,0-.1,0-.2.1-.5.7-.9,1.4-1.2,2.2Z"/>
      <path class="st17" d="M177.1,408.4c0,0-.1,0-.2,0,0,0-1.2-1.5-1-2.5,0-.2.2-.5.4-.6.2-.2.5-.2.7,0,.6.4.5,2.4.2,3.1h0c0,0,0,.1,0,.1ZM176.5,405.6c-.1,0-.2.2-.2.4-.1.6.5,1.6.8,2,.2-.8.1-2.2-.2-2.5,0,0-.1,0-.3,0h0Z"/>
      <path class="st17" d="M133.1,412.5c0,0,0,0,.2,0,0,0,.1,0,.1.1,0,.3.5,2.8-.1,3.4-.1.1-.3.2-.5.1-.3,0-.6-.3-.7-.6-.1-.5,0-.9.1-1.4.2-.6.5-1.1.9-1.6ZM133.1,413c-.5.7-.8,1.5-.7,2.4,0,.2.2.4.5.4,0,0,.1,0,.2,0,0,0,0-.1.1-.2.1-.8.1-1.7,0-2.5Z"/>
      <polygon class="st0" points="149.5 399.8 139.2 403.5 134.3 405.2 135.5 410.7 140.3 409.6 152 407.1 149.5 399.8"/>
      <path class="st16" d="M136.9,410.9l-.9-6.4c0-.4-.4-.6-.7-.5l-3.2.5s-4.3.4-5.1,1.5c-2.5,3.2-.9,17.4.7,17.9.6.2,1.3-.7,1.5-1.2.8-1.8,2.3-6.6,3-8.1.8-1.8,3.1-2.6,4.2-3,.3,0,.5-.4.4-.7Z"/>
      <path class="st17" d="M133.1,412.4s.1,0,.2,0c.1,0,1.8.7,2.1,1.7,0,.2,0,.5,0,.7,0,.2-.3.4-.6.4-.7,0-1.6-1.8-1.7-2.6h0c0-.1,0-.1,0-.1ZM135.1,414.6c0-.1,0-.3,0-.4-.2-.6-1.2-1.1-1.6-1.4.2.8,1,2,1.4,2,0,0,.1,0,.2-.2h0Z"/>
      <polygon class="st14" points="149.5 399.8 139.2 403.5 140.3 409.6 152 407.1 149.5 399.8"/>
      <g>
        <polygon class="st16" points="142.2 410.6 145.1 410.8 143.1 400.6 139.8 402.4 142.2 410.6"/>
        <polygon class="st9" points="142.2 410.6 145.1 410.8 143.1 400.6 139.8 402.4 142.2 410.6"/>
      </g>
      <path class="st14" d="M99.1,370.9l15.4,17.1s17.1-.4,37.8,9.8c0,0,22.3-9.2,24.3-16.8,2.7-10-51.2-2.2-51.2-2.2l-26.4-7.9Z"/>
      <path class="st19" d="M126.1,374.7l-1.9-1.4c-.7-.5-1.7-.7-2.5-.4l-3.9,1.3c-1.6.5-2.8,1.8-3.3,3.4l-.3,1c3,2.5,8.1,3,8.1,3l1.4.3c1.3.3,2.5-.5,2.8-1.7l.6-2.9c.2-1-.2-2.1-1.1-2.7Z"/>
      <g>
        <path class="st17" d="M166.9,380.9v2.5c0,.7-.8.9-1.4.9h-50.7c-.7,0-1.4-.3-1.4-.9v-2.5h53.6Z"/>
        <path class="st11" d="M166.9,380.9v2.5c0,.7-.8.9-1.4.9h-50.7c-.7,0-1.4-.3-1.4-.9v-2.5h53.6Z"/>
        <path class="st14" d="M166.9,380.9v2.5c0,.7-.8.9-1.4.9h-33.5c-.7,0-1.4-.3-1.4-.9v-2.5h36.3Z"/>
        <path class="st17" d="M175.3,354.5l-6,27.4c-.2.9-1.1,1.6-2,1.6h-33c-.9,0-1.4-.8-1.2-1.7l6-27.2c.2-.9,1.1-1.3,2-1.3h33c.9,0,1.4.4,1.2,1.3Z"/>
        <path class="st11" d="M175.3,354.5l-6,27.4c-.2.9-1.1,1.6-2,1.6h-31.9c-.9,0-1.4-.8-1.2-1.7l6-27.2c.2-.9,1.1-1.3,2-1.3h31.9c.9,0,1.4.4,1.2,1.3Z"/>
        <path class="st14" d="M159.1,368.5h0c0,2.4-2.5,4.3-4.4,4.3s-2.9-1.9-2.4-4.3c.5-2.3,2.4-4.2,4.2-4.2-.5,2.3.6,4.2,2.4,4.2,0,0,.2,0,.2,0Z"/>
      </g>
      <polygon class="st0" points="156.7 411.5 167.5 413.3 172.7 414.2 174.2 408.8 169.5 407.4 158 403.9 156.7 411.5"/>
      <path class="st16" d="M173.1,407.9l-2.3,6c-.1.3,0,.7.4.8l3,1.1s4,1.7,5.2,1.2c3.7-1.6,9.2-14.8,8-16-.4-.5-1.4,0-1.9.3-1.6,1.2-5.2,4.7-6.6,5.6-1.6,1.1-4,.8-5.1.6-.3,0-.6.1-.7.4Z"/>
      <polygon class="st14" points="156.7 411.5 167.5 413.3 169.5 407.4 158 403.9 156.7 411.5"/>
      <path class="st17" d="M167.6,406.3s-44-24.8-59.2-24.1c-15.2.7-17.4,14.1-11.1,22.5,6.3,8.4,17.8,10.4,17.8,10.4,0,0-7.9-11.1-6.7-14.3,1.1-3.1,5.6,1.2,5.6,1.2,0,0,27.7,8.9,51.9,11l1.7-6.8Z"/>
      <g>
        <polygon class="st16" points="168.3 405.6 165.9 403.9 162.7 413.8 166.5 413.8 168.3 405.6"/>
        <polygon class="st9" points="168.3 405.6 165.9 403.9 162.7 413.8 166.5 413.8 168.3 405.6"/>
      </g>
      <path class="st16" d="M120.7,370.4l-31.5,3.9c-.2-3-.5-6.2-1.3-9.8-.8-3.9-2-8.3-3.9-13.6-1.5-4.3-3.4-9.1-5.7-14.8-1.9-4.5.5-9.3,5.1-10.3,1.2-.3,2.5-.5,3.9-.8,5.2-.9,9.6-1.6,14.3-1.8,1.6,0,3.2,0,4.8,0,5.7,0,10.6,6,11.4,11.5.5,3.1,1.2,5.4,1.6,12.8.5,6.3.9,12.5,1.2,22.9Z"/>
      <path class="st19" d="M86.4,308.8c1.8,4.4,4.4,12.7,1.8,16.1,0,0,4.3-1.2,14.2,3.4,2.2-4.2,0-5.1,0-5.1-5.4-.6-6-4.4-5.8-8l-10.3-6.3Z"/>
      <path class="st15" d="M100.3,327.4c-3,.8-3.4,5.5-3.4,5.5,0,0-8-4.3-10.7-7.6,1-.7,2.5-2,2.5-2,0,0,9.6,2.6,11.6,4.1Z"/>
      <path class="st15" d="M103.2,326.5s2.7.4,4.1,4c-.1-6.8-3.4-7.5-3.4-7.5,0,0-1-.6-2.8,0,2.6,1,2.1,3.6,2.1,3.6Z"/>
      <path class="st14" d="M90.6,311.4l6.1,3.8c0,.9,0,1.7,0,2.6-2,0-5.1-1.8-5.7-3.8-.3-1-.5-2-.4-2.5Z"/>
      <g>
        <path class="st19" d="M81.4,300c2.3,7.3,3.1,10.4,7.8,13.4,7,4.6,15.4.7,15.3-7,0-6.9-3.8-17.6-11.8-19.1-7.8-1.5-13.7,5.5-11.4,12.7Z"/>
        <path class="st17" d="M91,300.1c.2.6.6,1.1,1,1,.4,0,.6-.6.4-1.3-.2-.6-.6-1.1-1-1-.4,0-.6.6-.4,1.3Z"/>
        <path class="st17" d="M98.7,298.3c.2.6.6,1.1,1,1,.4,0,.6-.6.4-1.3-.2-.6-.6-1.1-1-1-.4,0-.6.6-.4,1.3Z"/>
        <path class="st17" d="M99,297.1l1.3-.7s-.4,1.3-1.3.7Z"/>
        <path class="st1" d="M96.7,300.2s1.8,2.5,3.2,3.5c-.6.9-2.1.8-2.1.8l-1.2-4.4Z"/>
        <path class="st17" d="M95,307.5c.3,0,.7,0,1-.1,0,0,.2-.1.1-.2,0,0-.1-.2-.2-.1-2.7.5-4.4-1.1-4.5-1.1,0,0-.2,0-.3,0s0,.2,0,.3c0,0,1.5,1.4,3.8,1.3Z"/>
        <path class="st17" d="M88.8,296.5c0,0,.2,0,.2-.1.9-1.3,2.3-1.2,2.3-1.2.2,0,.4-.1.4-.3,0-.2-.2-.4-.4-.4,0,0-1.8-.1-2.9,1.5-.1.2,0,.4.1.5,0,0,.2,0,.3,0Z"/>
        <path class="st17" d="M100.8,293.6c0,0,.2,0,.3,0,.1-.1.1-.4,0-.5-1.5-1.5-3.2-1.3-3.2-1.2-.2,0-.3.2-.3.4,0,.2.2.3.4.3,0,0,1.4-.2,2.6,1,0,0,.2.1.3.1Z"/>
        <path class="st17" d="M91.2,298.9l1.3-.7s-.4,1.3-1.3.7Z"/>
        <path class="st17" d="M84,304.1s4.6-5.8,1.6-12.5c0,0,9.2-6.5,15.7,2.8,0,0-1.3-9-11.3-8.4-10,.6-18.2,16.3-4.9,23.6l-1.1-5.4Z"/>
        <path class="st19" d="M80.4,306.6c1.2,1.3,2.8,2,4.2,2,2.1,0,2.5-2.1,1.4-3.9-1-1.6-3.3-3.6-5.1-2.8-1.8.8-1.9,3.2-.5,4.7Z"/>
        <path class="st22" d="M84.8,291.8s11.6-5.9,18.6,6.4"/>
      </g>
      <path class="st19" d="M162.6,302.8l-.4,2c-.1.8-.7,1.4-1.4,1.7l-3.3,1.5c-1.3.6-2.9.5-4.1-.2l-.8-.5c.4-3.4,3.4-6.8,3.4-6.8l.7-1.1c.7-.9,1.9-1.2,2.8-.6l2.1,1.4c.7.5,1.1,1.4.9,2.3Z"/>
      <path class="st14" d="M88,364.5c-.8-3.9-2-8.3-3.9-13.6,2.7-5.5,5.5-10.1,5.5-10.1,0,0,9.7,14-1.6,23.7Z"/>
      <path class="st19" d="M87.2,339.8l.7,2.8c.3,1,.5,1.9.8,2.9.6,1.9,1.2,3.8,1.9,5.7.7,1.9,1.4,3.7,2.2,5.5.8,1.8,1.7,3.5,2.7,5.1l-.6-.7c.3.3.5.5.9.8.4.3.7.6,1.2.9.8.6,1.7,1.2,2.6,1.8,1.8,1.2,3.7,2.4,5.6,3.6l5.7,3.5,5.7,3.5c1.1.7,1.5,2.2.8,3.3-.6,1-1.8,1.4-2.8,1-2.2-.7-4.3-1.5-6.5-2.3-2.1-.8-4.2-1.7-6.4-2.6-2.1-1-4.2-1.9-6.3-3-1-.6-2.1-1.1-3.2-1.8-.5-.3-1.1-.7-1.6-1-.5-.3-1.2-.9-1.7-1.3-.1-.1-.3-.2-.4-.4l-.2-.3c-1.4-1.9-2.7-3.9-3.8-5.9-1.1-2-2.1-4.1-2.9-6.2-.9-2.1-1.6-4.2-2.3-6.3-.3-1.1-.6-2.1-.9-3.2-.3-1.1-.5-2.1-.8-3.4-.5-2.6,1.2-5.1,3.8-5.6,2.5-.5,4.9,1.1,5.6,3.5v.2Z"/>
      <path class="st16" d="M81.1,326.8c-5.5,3.6-5.9,9.2-3.4,20.1,3.8,2.1,13.3,0,13.3,0,0,0-2.4-16.9-9.8-20.1Z"/>
    </g>
  </g>
  <g id="Character_2">
    <g>
      <path class="st17" d="M335,180.8c.3.6.2,1.1-.2,1.3-.4.2-.9-.1-1.1-.7-.3-.6-.2-1.1.2-1.3.4-.2.9.1,1.1.7Z"/>
      <path class="st30" d="M335.2,181.9s.2,3.8-.4,6c1.4.5,2.9-.7,2.9-.7l-2.4-5.2Z"/>
      <path class="st17" d="M335.6,176.8c0,0,.1-.1.1-.2,0-.2,0-.4-.3-.4-2-.4-3.1.8-3.2.9-.1.1-.1.4,0,.5.1.1.4.1.5,0h0s1-1,2.5-.7c.1,0,.2,0,.3,0Z"/>
      <path class="st27" d="M352.5,175.5c2.7,5,8.3,13.5,13.7,13.9,0,0,2.4,5.3-5.6,11.9-8.8,7.2-7.8-.9-7.8-.9,3.8-5.1.8-8.5-2.8-11.2l2.4-13.7Z"/>
      <path class="st27" d="M353,171c2.8,7,4.7,11,2.9,16.1-2.7,7.7-12.6,8.5-17.4,2.4-4.3-5.4-8.1-16-2.7-21.8,5.3-5.7,14.4-3.7,17.2,3.3Z"/>
      <path class="st17" d="M357.4,182.5c-1.4,3.3-14,5.2-17.5-3.4,0,0-6.5-1.6-9.5-6.5-3-4.9-1.1-9,2.9-10.4,3.6-1.3,4.7.4,4.7.4,0,0,15.2-8.7,16.4-.8,10.3,2,4.8,16.7,3,20.7Z"/>
      <path class="st27" d="M343.2,178.6c.7,1.8.7,3.9.2,5.5-.7,2.4-2.8,2.1-4,.2-1.1-1.7-2-5-.6-6.7,1.4-1.7,3.6-1,4.4,1.1Z"/>
      <g>
        <path class="st16" d="M368.5,189.9c-1-3-2.2-6.4-5.8-5.2-3.2,1.1-12.4,6.8-13.1,8.7,1.6,1.3,2.4,3.8,2.4,3.8l16.5-7.3Z"/>
        <path class="st4" d="M368.5,189.9c-1-3-2.2-6.4-5.8-5.2-3.2,1.1-12.4,6.8-13.1,8.7,1.6,1.3,2.4,3.8,2.4,3.8l16.5-7.3Z"/>
      </g>
      <path class="st34" d="M382.4,189.2c4.7,2.1,9.1,4.3,13.5,6.8,4.4,2.5,8.6,5.3,12.7,8.6,1.2,1,2.2,2,3.1,3,.9,1,1.7,2,2.6,2.9,1.6,2,3.1,4,4.6,6,2.9,4,5.6,8.2,8.2,12.4l-4.2,3.2-10.1-10.5c-1.7-1.7-3.4-3.4-5-5.1-.8-.8-1.7-1.6-2.5-2.4-.8-.7-1.7-1.4-2.4-1.9-1.8-1.2-3.8-2.5-5.8-3.6-2-1.2-4.1-2.3-6.2-3.4-4.2-2.2-8.5-4.3-12.7-6.3l4.3-9.7Z"/>
      <path class="st27" d="M426.8,241.2l-2.5-4.5,7.7-2.3s1.6,3.6-.1,6.6l-5.1.3Z"/>
      <polygon class="st27" points="421.4 230.1 426.3 228.5 432 234.4 424.2 236.7 421.4 230.1"/>
      <path class="st17" d="M377.2,186.4c6.3-2.5,20.2,8.3,20.2,8.3l-5.2,15.7s-6.6-1-13.1-6.7c-6.8-6-8.3-14.8-1.9-17.3Z"/>
      <path class="st14" d="M386.3,198.3c4,3.4,6.2,6.1,6.2,11.5l-.2.7s-6.6-1-13.1-6.7c-.4-.4-.8-.7-1.2-1.1l8.3-4.4Z"/>
      <path class="st17" d="M402.3,246.2c-12,2.1-33.9,6.1-39.7,7.1-1.6-3.4-5-15.4-11.6-29.8-1.8-3.9-3.8-8-6-12.2-2.5-4.5-5.2-9.1-8.3-13.6,0,0,6.3-2.4,12.7-3.8,5-1.1,20.7-7.1,25.3-7.6,6.1-.6,6.8,2.1,6.8,2.1,0,0,8.2,8.6,21,57.9Z"/>
      <path class="st14" d="M351,223.5c-1.8-3.9-3.8-8-6-12.2l2.6-1.6s6,9.1,3.5,13.8Z"/>
      <path class="st27" d="M301.8,217.8l-5.1-.8.6,8.1s4,.2,6.1-2.5l-1.6-4.8Z"/>
      <polygon class="st27" points="289.5 216.4 291.4 223.4 297.3 225.1 296.7 217 289.5 216.4"/>
      <path class="st34" d="M343,206.2c-.1.8-.2,1.4-.4,2-.1.6-.3,1.3-.4,1.9-.3,1.3-.6,2.5-1,3.8-.7,2.5-1.7,5-2.7,7.4-1.1,2.4-2.4,4.9-4,7.2-1.7,2.3-3.7,4.6-6.4,6.5-1.4.9-2.9,1.7-4.6,2.2-.2,0-.4.1-.6.2h-.3c0,0-.5.2-.5.2-.7.1-1.3.2-1.8.1-1.1,0-2.1-.2-2.9-.5-1.7-.5-3-1.2-4.3-1.9-1.2-.7-2.4-1.5-3.4-2.3-4.2-3.2-7.7-6.8-10.9-10.8l3.7-3.7c3.8,2.7,7.8,5.5,11.7,7.6,1,.5,2,1,2.9,1.4.9.4,1.8.7,2.5.8.3,0,.6,0,.7,0,0,0,0,0,0,0,0,0,0,0,0,0h.1c0,0,.2,0,.2-.1.6-.3,1.3-.6,1.9-1.1,1.3-1,2.5-2.4,3.5-4.1,1.1-1.7,2-3.6,2.9-5.6.8-2,1.5-4.1,2.2-6.3.3-1.1.6-2.2.9-3.3l.4-1.6c.1-.5.3-1.1.3-1.5l10.5,1.8Z"/>
      <path class="st17" d="M348.7,205.7c4.6,8.5-9.5,21.7-9.5,21.7l-14-9.7s2.9-8.6,7.4-16c5.6-9.1,12.6-2.5,16,4Z"/>
      <g id="_x3C_Group_x3E_">
        <polygon class="st27" points="345.3 409.5 337.2 410.4 336.8 405.7 335.6 392.9 343.8 392 345 406.1 345.3 409.5"/>
        <polygon class="st27" points="415.8 408.5 407.9 408.5 407.5 406.7 407.5 406.5 405 395.1 405 394.9 404 390.5 411.9 390.5 415.8 408.5"/>
        <polygon class="st14" points="343.8 392 345 406.1 336.8 405.7 335.6 392.9 343.8 392"/>
        <polygon class="st14" points="415.5 407.5 415.5 407.5 407.5 406.5 407.5 406.5 405.1 395.5 405.1 395.5 413.1 396.2 415.5 407.1 415.5 407.5"/>
        <path class="st17" d="M406.8,408h9.5c.3,0,.6.2.7.5l1.5,7c.1.6-.3,1.2-.9,1.4,0,0-.2,0-.3,0-3.1,0-5.3-.2-9.2-.2s-9.6.2-12.9.2-3.7-3.3-2.4-3.6c6.1-1.3,10.6-3.1,12.6-4.9.4-.3.8-.5,1.3-.5Z"/>
        <path class="st17" d="M336.3,407.7h9.5c.3,0,.6.2.7.5l1.5,7c.1.6-.3,1.2-.9,1.4,0,0-.2,0-.3,0-3.1,0-5.3-.2-9.2-.2s-9.6.2-12.9.2-3.7-3.3-2.4-3.6c6.1-1.3,10.6-3.1,12.6-4.9.4-.3.8-.5,1.3-.5Z"/>
        <g>
          <path class="st16" d="M334.9,402.5l11.6.4c-4.2-77.6-6.2-81.5,31.5-118.1.9,11.1,1.9,22.6,2.8,32.2.6,5.9.8,11.1,1.8,14.9,6.7,25.7,22.8,71.2,22.8,71.2l11.3.5s-14.2-62.3-15.6-82.6c-1.9-26.6,4.3-55.5.8-76.3l-39.5,6.7c-35.9,52.5-42.4,63.8-27.4,151.3Z"/>
          <path class="st10" d="M334.9,402.5l11.6.4c-4.2-77.6-6.2-81.5,31.5-118.1.9,11.1,1.9,22.6,2.8,32.2.6,5.9.8,11.1,1.8,14.9,6.7,25.7,22.8,71.2,22.8,71.2l11.3.5s-14.2-62.3-15.6-82.6c-1.9-26.6,4.3-55.5.8-76.3l-39.5,6.7c-35.9,52.5-42.4,63.8-27.4,151.3Z"/>
        </g>
        <path class="st14" d="M378,284.7c.9,11.1,1.9,22.6,2.8,32.2,1.4-13.8,3.2-23.7,3.2-23.7,0,0,1.6-1.3,6.1-8.5,4.5-7.2,0-20.5,0-20.5.1,12.4-12.1,20.5-12.1,20.5Z"/>
        <polygon class="st16" points="333.6 401.2 334.2 404.5 347.8 404.5 347.8 401.5 333.6 401.2"/>
        <polygon class="st16" points="404.1 402.5 405.4 405.5 417.8 405.5 417.5 402.5 404.1 402.5"/>
        <polygon class="st13" points="333.6 401.2 334.2 404.5 347.8 404.5 347.8 401.5 333.6 401.2"/>
        <polygon class="st13" points="404.1 402.5 405.4 405.5 417.8 405.5 417.5 402.5 404.1 402.5"/>
      </g>
    </g>
  </g>
</svg>