<?xml version="1.0" encoding="UTF-8"?>
<svg id="Layer_1" xmlns="http://www.w3.org/2000/svg" version="1.1" viewBox="0 0 500 500">
  <!-- Generator: Adobe Illustrator 29.1.0, SVG Export Plug-In . SVG Version: 2.1.0 Build 142)  -->
  <defs>
    <style>
      .st0 {
        stroke: #fff;
        stroke-width: 2.6px;
      }

      .st0, .st1 {
        stroke-miterlimit: 10;
      }

      .st0, .st2, .st3, .st4 {
        fill: none;
      }

      .st1 {
        fill: #00808a;
        stroke: #000;
      }

      .st2 {
        stroke-width: 3px;
      }

      .st2, .st3 {
        stroke: #fbd131;
      }

      .st2, .st3, .st4 {
        stroke-linejoin: round;
      }

      .st5 {
        fill: #29354a;
      }

      .st6 {
        fill: #fff;
      }

      .st7 {
        fill: #75a1f9;
      }

      .st8 {
        fill: #083273;
      }

      .st9 {
        fill: #fc2863;
      }

      .st3 {
        stroke-width: 2.7px;
      }

      .st4 {
        stroke: #0148a2;
        stroke-linecap: round;
        stroke-width: 2.5px;
      }

      .st10 {
        fill: #fbd131;
      }

      .st11 {
        fill: #6981f7;
      }

      .st12 {
        fill: #ebedef;
      }

      .st13 {
        fill: #92a9fc;
        font-family: RobotoCondensed-Regular, 'Roboto Condensed';
        font-size: 24.1px;
        isolation: isolate;
      }

      .st14 {
        fill: #a9ccff;
      }

      .st15 {
        fill: #0148a2;
      }

      .st16 {
        fill: #d7eff5;
      }
    </style>
  </defs>
  <rect class="st1" width="501.5" height="501.5"/>
  <g id="Objects">
    <g>
      <g>
        <g>
          <g>
            <polygon class="st4" points="412.8 201.7 389.3 215.2 365.8 201.7 365.8 174.6 389.3 161 412.8 174.6 412.8 201.7"/>
            <line class="st4" x1="412.8" y1="174.6" x2="436.2" y2="161"/>
            <line class="st4" x1="436.2" y1="215.2" x2="412.8" y2="201.7"/>
            <line class="st4" x1="366.9" y1="201.7" x2="343.4" y2="215.2"/>
            <line class="st4" x1="389.3" y1="135.7" x2="389.3" y2="159.3"/>
          </g>
          <g>
            <path class="st15" d="M393.4,161c0,2.3-1.8,4.1-4.1,4.1s-4.1-1.9-4.1-4.1,1.9-4.1,4.1-4.1,4.1,1.8,4.1,4.1Z"/>
            <path class="st15" d="M393.4,215.2c0,2.3-1.8,4.1-4.1,4.1s-4.1-1.8-4.1-4.1,1.9-4.1,4.1-4.1,4.1,1.8,4.1,4.1Z"/>
            <path class="st15" d="M416.9,174.9c0,2.3-1.8,4.1-4.1,4.1s-4.1-1.9-4.1-4.1,1.8-4.1,4.1-4.1c2.3,0,4.1,1.8,4.1,4.1Z"/>
            <path class="st15" d="M440.4,161c0,2.3-1.9,4.1-4.1,4.1s-4.1-1.9-4.1-4.1,1.9-4.1,4.1-4.1,4.1,1.8,4.1,4.1Z"/>
            <path class="st15" d="M393.4,135.7c0,2.3-1.9,4.1-4.1,4.1s-4.1-1.9-4.1-4.1,1.9-4.1,4.1-4.1c2.3,0,4.1,1.8,4.1,4.1Z"/>
            <path class="st15" d="M440.4,215.2c0,2.3-1.9,4.1-4.1,4.1s-4.1-1.8-4.1-4.1,1.9-4.1,4.1-4.1,4.1,1.8,4.1,4.1Z"/>
            <path class="st15" d="M347.6,215.2c0,2.3-1.9,4.1-4.1,4.1s-4.1-1.8-4.1-4.1,1.9-4.1,4.1-4.1,4.1,1.8,4.1,4.1Z"/>
            <path class="st15" d="M416.9,201.3c0,2.3-1.8,4.1-4.1,4.1s-4.1-1.9-4.1-4.1,1.8-4.1,4.1-4.1,4.1,1.8,4.1,4.1Z"/>
            <path class="st15" d="M370,174.9c0,2.3-1.8,4.1-4.1,4.1s-4.1-1.9-4.1-4.1,1.9-4.1,4.1-4.1c2.3,0,4.1,1.8,4.1,4.1Z"/>
            <path class="st15" d="M370,201.3c0,2.3-1.8,4.1-4.1,4.1s-4.1-1.9-4.1-4.1,1.9-4.1,4.1-4.1,4.1,1.8,4.1,4.1Z"/>
          </g>
        </g>
        <g>
          <g>
            <polygon class="st4" points="133.1 377.7 109.6 391.3 86.2 377.7 86.2 350.6 109.6 337.1 133.1 350.6 133.1 377.7"/>
            <line class="st4" x1="133.1" y1="350.6" x2="156.6" y2="337.1"/>
            <line class="st4" x1="156.6" y1="391.3" x2="133.1" y2="377.7"/>
            <line class="st4" x1="87.2" y1="377.7" x2="63.8" y2="391.3"/>
            <line class="st4" x1="109.6" y1="311.8" x2="109.6" y2="335.3"/>
          </g>
          <g>
            <path class="st15" d="M113.8,337.1c0,2.3-1.8,4.1-4.1,4.1s-4.1-1.9-4.1-4.1,1.8-4.1,4.1-4.1,4.1,1.9,4.1,4.1Z"/>
            <path class="st15" d="M113.8,391.3c0,2.3-1.8,4.1-4.1,4.1s-4.1-1.8-4.1-4.1,1.8-4.1,4.1-4.1c2.3,0,4.1,1.8,4.1,4.1Z"/>
            <path class="st15" d="M137.2,350.9c0,2.3-1.8,4.1-4.1,4.1s-4.1-1.9-4.1-4.1,1.8-4.1,4.1-4.1,4.1,1.9,4.1,4.1Z"/>
            <path class="st15" d="M160.7,337.1c0,2.3-1.9,4.1-4.1,4.1s-4.1-1.9-4.1-4.1,1.9-4.1,4.1-4.1,4.1,1.9,4.1,4.1Z"/>
            <path class="st15" d="M113.8,311.8c0,2.3-1.8,4.1-4.1,4.1s-4.1-1.9-4.1-4.1,1.8-4.1,4.1-4.1,4.1,1.9,4.1,4.1Z"/>
            <path class="st15" d="M160.7,391.3c0,2.3-1.9,4.1-4.1,4.1s-4.1-1.8-4.1-4.1,1.9-4.1,4.1-4.1c2.3,0,4.1,1.8,4.1,4.1Z"/>
            <path class="st15" d="M67.9,391.3c0,2.3-1.8,4.1-4.1,4.1s-4.1-1.8-4.1-4.1,1.8-4.1,4.1-4.1c2.3,0,4.1,1.8,4.1,4.1Z"/>
            <path class="st15" d="M137.2,377.3c0,2.3-1.8,4.1-4.1,4.1s-4.1-1.9-4.1-4.1,1.8-4.1,4.1-4.1,4.1,1.8,4.1,4.1Z"/>
            <path class="st15" d="M90.3,350.9c0,2.3-1.8,4.1-4.1,4.1s-4.1-1.9-4.1-4.1,1.8-4.1,4.1-4.1,4.1,1.9,4.1,4.1Z"/>
            <path class="st15" d="M90.3,377.3c0,2.3-1.8,4.1-4.1,4.1s-4.1-1.9-4.1-4.1,1.8-4.1,4.1-4.1,4.1,1.8,4.1,4.1Z"/>
          </g>
        </g>
      </g>
      <g>
        <path class="st14" d="M350.7,171.2c1.3-5.3-1.5-10.4-6.5-11.6-2.6-.6-5.3,0-7.6,1.3.1-1,.2-1.9.2-3,0-12.1-7.6-21.9-16.9-21.9s-13.6,6.1-15.9,14.7c-3-3-6.8-4.7-10.5-4-6.5,1.1-10.2,8.7-8.3,17-1.3-.6-2.7-1-4.1-1-4.8,0-8.7,3.6-9.5,8.4h79.2Z"/>
        <path class="st14" d="M140.2,280.2c1.3-5.3-1.5-10.4-6.5-11.6-2.6-.6-5.3,0-7.6,1.3.1-1,.2-1.9.2-3,0-12.1-7.6-21.9-16.9-21.9s-13.6,6.1-15.9,14.7c-3-3-6.8-4.7-10.5-4-6.5,1.1-10.2,8.7-8.3,17-1.3-.6-2.7-1-4.1-1-4.8,0-8.7,3.6-9.5,8.4h79.2Z"/>
        <path class="st14" d="M428.1,395.9c1.3-5.3-1.5-10.4-6.5-11.6-2.6-.6-5.3,0-7.6,1.3.1-1,.2-1.9.2-3,0-12.1-7.6-21.9-16.9-21.9s-13.6,6.1-15.9,14.7c-3-3-6.8-4.7-10.5-4-6.5,1.1-10.2,8.7-8.3,17-1.3-.6-2.7-1-4.1-1-4.8,0-8.7,3.6-9.5,8.4h79.2Z"/>
        <path class="st14" d="M226.6,117.1c1.3-5.3-1.5-10.4-6.5-11.6-2.6-.6-5.3,0-7.6,1.3.1-1,.2-1.9.2-3,0-12.1-7.6-21.9-16.9-21.9s-13.6,6.1-15.9,14.7c-3-3-6.8-4.7-10.5-4-6.5,1.1-10.2,8.7-8.3,17-1.3-.6-2.7-1-4.1-1-4.8,0-8.7,3.6-9.5,8.4h79.2Z"/>
      </g>
      <g>
        <path class="st14" d="M363.9,128.2c0,3.5-2.8,6.3-6.3,6.3s-6.3-2.8-6.3-6.3,2.8-6.3,6.3-6.3c3.5,0,6.3,2.8,6.3,6.3Z"/>
        <path class="st14" d="M432.4,332.2c0,3.5-2.8,6.3-6.3,6.3s-6.3-2.8-6.3-6.3,2.8-6.3,6.3-6.3,6.3,2.8,6.3,6.3Z"/>
        <path class="st14" d="M80.1,191.2c0,3.5-2.8,6.3-6.3,6.3s-6.3-2.8-6.3-6.3,2.8-6.3,6.3-6.3c3.5,0,6.3,2.8,6.3,6.3Z"/>
        <path class="st14" d="M80.1,323.7c0,3.5-2.8,6.3-6.3,6.3s-6.3-2.8-6.3-6.3,2.8-6.3,6.3-6.3,6.3,2.8,6.3,6.3Z"/>
        <path class="st14" d="M178.1,147.5c0,2.2-1.8,4-4,4s-4-1.8-4-4,1.8-4,4-4c2.2,0,4,1.8,4,4Z"/>
        <path class="st14" d="M100.8,228.4c0,2.2-1.8,4-4,4s-4-1.8-4-4,1.8-4,4-4c2.2,0,4,1.8,4,4Z"/>
        <path class="st14" d="M187.4,385.8c0,2.2-1.8,4-4,4s-4-1.8-4-4,1.8-4,4-4c2.2,0,4,1.8,4,4Z"/>
        <path class="st14" d="M331.4,393.3c0,2.2-1.8,4-4,4s-4-1.8-4-4,1.8-4,4-4c2.2,0,4,1.8,4,4Z"/>
        <path class="st14" d="M414.4,256.7c0,2.2-1.8,4-4,4s-4-1.8-4-4,1.8-4,4-4,4,1.8,4,4Z"/>
        <path class="st14" d="M289.9,103.6c0,2.2-1.8,4-4,4s-4-1.8-4-4,1.8-4,4-4,4,1.8,4,4Z"/>
      </g>
      <path class="st7" d="M441.4,418.5c0,4.9-3.4,8.8-7.7,8.8H66.3c-4.3,0-7.7-3.9-7.7-8.8h0c0-4.9,3.5-8.8,7.7-8.8h367.4c4.3,0,7.7,3.9,7.7,8.8h0Z"/>
      <g>
        <path class="st5" d="M420.8,310.2v-13.1h-8.4c-.5-2-1.3-3.8-2.3-5.5l6-6-9.3-9.3-6,6c-1.7-1-3.6-1.8-5.5-2.3v-8.5h-13.1v8.5c-2,.5-3.8,1.3-5.5,2.3l-6-6-9.3,9.3,6,6c-1,1.7-1.8,3.6-2.3,5.5h-8.4v13.1h8.4c.5,2,1.3,3.8,2.3,5.6l-6,6,9.3,9.3,6-6c1.7,1,3.6,1.8,5.6,2.3v8.4h13.1v-8.4c2-.5,3.8-1.3,5.6-2.3l5.9,6,9.3-9.3-6-6c1-1.7,1.8-3.6,2.3-5.6h8.4ZM388.7,315.3c-6.4,0-11.7-5.2-11.7-11.7s5.2-11.7,11.7-11.7,11.7,5.2,11.7,11.7c0,6.4-5.2,11.7-11.7,11.7Z"/>
        <path class="st5" d="M363.5,117.7v-13.1h-8.4c-.5-2-1.3-3.8-2.3-5.5l6-6-9.3-9.3-6,6c-1.7-1-3.6-1.8-5.5-2.3v-8.5h-13.1v8.5c-2,.5-3.8,1.3-5.5,2.3l-6-6-9.3,9.3,6,6c-1,1.7-1.8,3.6-2.3,5.5h-8.4v13.1h8.4c.5,2,1.3,3.8,2.3,5.6l-6,6,9.3,9.3,6-5.9c1.7,1,3.6,1.8,5.6,2.3v8.4h13.1v-8.4c2-.5,3.8-1.3,5.6-2.3l5.9,5.9,9.3-9.3-6-6c1-1.7,1.8-3.6,2.3-5.6h8.4ZM331.4,122.8c-6.4,0-11.7-5.2-11.7-11.7s5.2-11.7,11.7-11.7,11.7,5.2,11.7,11.7c0,6.4-5.2,11.7-11.7,11.7Z"/>
        <path class="st5" d="M143.4,244.1v-13.1h-8.4c-.5-2-1.3-3.8-2.3-5.5l6-6-9.3-9.3-6,6c-1.7-1-3.6-1.8-5.5-2.3v-8.5h-13.1v8.5c-2,.5-3.8,1.3-5.5,2.3l-6-6-9.3,9.3,6,6c-1,1.7-1.8,3.6-2.3,5.5h-8.4v13.1h8.4c.5,2,1.3,3.8,2.3,5.6l-6,6,9.3,9.3,6-6c1.7,1,3.6,1.8,5.6,2.3v8.4h13.1v-8.4c2-.5,3.8-1.3,5.6-2.3l5.9,6,9.3-9.3-6-6c1-1.7,1.8-3.6,2.3-5.6h8.4ZM111.3,249.2c-6.4,0-11.7-5.2-11.7-11.7s5.2-11.7,11.7-11.7,11.7,5.2,11.7,11.7-5.2,11.7-11.7,11.7Z"/>
      </g>
      <g>
        <g>
          <rect class="st9" x="83.2" y="145.7" width="14.8" height="19.9"/>
          <rect class="st9" x="105.3" y="135.7" width="14.8" height="29.9"/>
          <rect class="st9" x="126.6" y="125.2" width="14.8" height="40.3"/>
        </g>
        <g>
          <polygon class="st10" points="140.4 99.9 129 101.5 132.1 104.7 115.3 118.5 106.8 111 83.2 130.4 85.2 132.7 106.7 115 115.2 122.6 134.3 106.8 138.1 110.6 140.4 99.9"/>
          <path class="st10" d="M88.5,131.5c0,2.4-1.9,4.3-4.3,4.3s-4.3-1.9-4.3-4.3,1.9-4.3,4.3-4.3c2.4,0,4.3,1.9,4.3,4.3Z"/>
          <path class="st10" d="M110.9,113.6c0,2.4-1.9,4.3-4.3,4.3s-4.3-1.9-4.3-4.3,1.9-4.3,4.3-4.3,4.3,1.9,4.3,4.3Z"/>
          <path class="st10" d="M119.7,119.9c0,2.4-1.9,4.3-4.3,4.3s-4.3-1.9-4.3-4.3,1.9-4.3,4.3-4.3,4.3,1.9,4.3,4.3Z"/>
        </g>
      </g>
      <g>
        <g>
          <g>
            <g>
              <rect class="st6" x="202.1" y="376.7" width="95.3" height="24.3"/>
              <rect class="st16" x="202.1" y="376.7" width="95.3" height="8.1"/>
              <path class="st16" d="M201.3,401h97c11.4,0,20.6,7.8,20.6,17.5h-138.2c0-9.7,9.2-17.5,20.6-17.5Z"/>
            </g>
            <g>
              <path class="st6" d="M116.2,376.7h267.6c2.7,0,4.9-2.2,4.9-4.9v-181.9c0-2.7-2.2-4.9-4.9-4.9H116.2c-2.7,0-4.9,2.2-4.9,4.9v181.9c0,2.7,2.2,4.9,4.9,4.9Z"/>
              <path class="st5" d="M119.1,346.3h261.9c2.7,0,4.9-2.2,4.9-4.9v-149.1c0-2.7-2.2-4.9-4.9-4.9H119.1c-2.7,0-4.9,2.2-4.9,4.9v149.1c0,2.7,2.2,4.9,4.9,4.9Z"/>
              <path class="st11" d="M130.1,331.9h239.8c2.3,0,4.3-1.9,4.3-4.3v-121.7c0-2.4-1.9-4.3-4.3-4.3h-239.8c-2.3,0-4.3,1.9-4.3,4.3v121.7c0,2.3,1.9,4.2,4.3,4.2Z"/>
              <path class="st16" d="M256.4,361c0,3.7-3,6.7-6.7,6.7s-6.7-3-6.7-6.7,3-6.7,6.7-6.7c3.7,0,6.7,3,6.7,6.7Z"/>
            </g>
          </g>
          <g>
            <text class="st13" transform="translate(136.8 323.7)"><tspan x="0" y="0">0101001101100110101</tspan></text>
            <text class="st13" transform="translate(136.8 228.4)"><tspan x="0" y="0">0101001101100110101</tspan></text>
            <text class="st13" transform="translate(136.8 291.2)"><tspan x="0" y="0">1101010101001101100</tspan></text>
            <text class="st13" transform="translate(136.8 259.8)"><tspan x="0" y="0">1010011001010101011</tspan></text>
          </g>
        </g>
        <g>
          <path class="st5" d="M324.6,211.4c0,41.2-33.4,74.6-74.6,74.6s-74.6-33.4-74.6-74.6,33.4-74.6,74.6-74.6c41.2,0,74.6,33.4,74.6,74.6Z"/>
          <g>
            <g>
              <path class="st0" d="M268,211.1c0,28.5-8.1,51.5-18,51.5s-18-23.1-18-51.5,8.1-51.5,18-51.5c10,0,18,23.1,18,51.5Z"/>
              <path class="st0" d="M262.8,200.5c24.1,20.1,37.9,41.2,30.9,47.1-7,5.9-32.3-5.7-56.4-25.8-24.1-20.1-37.9-41.2-30.9-47.1,7-5.9,32.3,5.7,56.4,25.8Z"/>
              <path class="st0" d="M237.2,200.5c-24.1,20.1-37.9,41.2-30.9,47.1,7,5.9,32.3-5.7,56.4-25.8,24.1-20.1,37.9-41.2,30.9-47.1-7-5.9-32.3,5.7-56.4,25.8Z"/>
            </g>
            <path class="st10" d="M259,211.1c0,5-4,9-9,9s-9-4-9-9,4-9,9-9c5,0,9,4,9,9Z"/>
            <g>
              <path class="st9" d="M279.2,176.3c0,2.1-1.7,3.8-3.8,3.8s-3.8-1.7-3.8-3.8,1.7-3.8,3.8-3.8c2.1,0,3.8,1.7,3.8,3.8Z"/>
              <path class="st9" d="M217,197.9c0,2.1-1.7,3.8-3.8,3.8s-3.8-1.7-3.8-3.8,1.7-3.8,3.8-3.8,3.8,1.7,3.8,3.8Z"/>
              <path class="st9" d="M262.3,256.7c0,2.1-1.7,3.8-3.8,3.8s-3.8-1.7-3.8-3.8,1.7-3.8,3.8-3.8c2.1,0,3.8,1.7,3.8,3.8Z"/>
            </g>
          </g>
        </g>
        <g>
          <path class="st12" d="M438.3,359.4h-148.7c-.6,0-1.1-.5-1.1-1.1v-53.7c0-.6.5-1.1,1.1-1.1h148.7c.6,0,1.1.5,1.1,1.1v53.7c0,.6-.5,1.1-1.1,1.1Z"/>
          <path class="st15" d="M436.4,357.5h-145c-.5,0-1-.4-1-1v-50c0-.5.4-1,1-1h145c.5,0,1,.4,1,1v50c0,.5-.4,1-1,1Z"/>
          <path class="st12" d="M288.6,304.7v14.5h150.8v-14.5c0-.6-.5-1.1-1.1-1.1h-148.7c-.6,0-1.1.5-1.1,1.1Z"/>
          <g>
            <path class="st10" d="M419,311.4c0,1-.8,1.9-1.9,1.9s-1.9-.8-1.9-1.9.8-1.9,1.9-1.9c1,0,1.9.8,1.9,1.9Z"/>
            <path class="st10" d="M426.4,311.4c0,1-.8,1.9-1.9,1.9s-1.9-.8-1.9-1.9.8-1.9,1.9-1.9c1,0,1.9.8,1.9,1.9Z"/>
            <path class="st10" d="M433.7,311.4c0,1-.8,1.9-1.9,1.9s-1.9-.8-1.9-1.9.8-1.9,1.9-1.9c1,0,1.9.8,1.9,1.9Z"/>
          </g>
          <g>
            <rect class="st9" x="347.4" y="328.9" width="22.9" height="3.3"/>
            <rect class="st11" x="375.8" y="328.9" width="25.8" height="3.3"/>
            <rect class="st11" x="375.8" y="336.3" width="36.7" height="3.3"/>
            <rect class="st8" x="407.2" y="328.9" width="13.2" height="3.3"/>
            <rect class="st11" x="347.4" y="343.6" width="22.9" height="3.3"/>
            <rect class="st9" x="375.8" y="343.6" width="21.6" height="3.3"/>
            <rect class="st10" x="401.6" y="343.6" width="27" height="3.3"/>
            <rect class="st8" x="347.4" y="336.3" width="22.9" height="3.3"/>
          </g>
          <g>
            <polyline class="st2" points="329.1 345.8 337 337.9 329.1 330.1"/>
            <polyline class="st2" points="306.2 345.8 298.4 337.9 306.2 330.1"/>
            <line class="st2" x1="321.6" y1="330.1" x2="313.5" y2="346.5"/>
          </g>
        </g>
        <g>
          <path class="st12" d="M131.6,325.5H59.7c-.6,0-1.1-.5-1.1-1.1v-53.7c0-.6.5-1.1,1.1-1.1h71.9c.6,0,1.1.5,1.1,1.1v53.7c0,.6-.5,1.1-1.1,1.1Z"/>
          <path class="st15" d="M129.7,323.6H61.5c-.5,0-1-.4-1-1v-50c0-.5.4-1,1-1h68.2c.5,0,1,.4,1,1v50c0,.5-.4,1-1,1Z"/>
          <path class="st12" d="M58.6,270.7v14.5h74v-14.5c0-.6-.5-1.1-1.1-1.1H59.7c-.6,0-1.1.5-1.1,1.1Z"/>
          <g>
            <path class="st10" d="M112.3,277.5c0,1-.8,1.9-1.9,1.9s-1.9-.8-1.9-1.9.8-1.9,1.9-1.9c1,0,1.9.8,1.9,1.9Z"/>
            <path class="st10" d="M119.6,277.5c0,1-.8,1.9-1.9,1.9s-1.9-.8-1.9-1.9.8-1.9,1.9-1.9c1,0,1.9.8,1.9,1.9Z"/>
            <path class="st10" d="M127,277.5c0,1-.8,1.9-1.9,1.9s-1.9-.8-1.9-1.9.8-1.9,1.9-1.9c1,0,1.9.8,1.9,1.9Z"/>
          </g>
          <g>
            <rect class="st11" x="69.1" y="295" width="25.8" height="3.3"/>
            <rect class="st11" x="69.1" y="302.4" width="36.7" height="3.3"/>
            <rect class="st8" x="100.5" y="295" width="13.2" height="3.3"/>
            <rect class="st9" x="69.1" y="309.7" width="21.6" height="3.3"/>
            <rect class="st10" x="94.9" y="309.7" width="27" height="3.3"/>
          </g>
        </g>
      </g>
      <g>
        <path class="st12" d="M244.1,126.8h-52.1c-.6,0-1-.5-1-1v-52.1c0-.6.5-1,1-1h52.1c.6,0,1,.5,1,1v52.1c0,.6-.5,1-1,1Z"/>
        <path class="st15" d="M242,124.7h-48c-.5,0-.9-.4-.9-.9v-48c0-.5.4-.9.9-.9h48c.5,0,.9.4.9.9v48c0,.5-.4.9-.9.9Z"/>
        <path class="st12" d="M191,73.7v14.1h54.2v-14.1c0-.6-.5-1-1-1h-52.1c-.6,0-1,.5-1,1Z"/>
        <g>
          <path class="st10" d="M225.4,80.2c0,1-.8,1.8-1.8,1.8s-1.8-.8-1.8-1.8.8-1.8,1.8-1.8c1,0,1.8.8,1.8,1.8Z"/>
          <path class="st10" d="M232.5,80.2c0,1-.8,1.8-1.8,1.8s-1.8-.8-1.8-1.8.8-1.8,1.8-1.8c1,0,1.8.8,1.8,1.8Z"/>
          <path class="st10" d="M239.7,80.2c0,1-.8,1.8-1.8,1.8s-1.8-.8-1.8-1.8.8-1.8,1.8-1.8c1,0,1.8.8,1.8,1.8Z"/>
        </g>
        <g>
          <polyline class="st3" points="227.4 112.6 233.7 106.3 227.4 100.1"/>
          <polyline class="st3" points="209.2 112.6 203 106.3 209.2 100.1"/>
          <line class="st3" x1="221.4" y1="100.1" x2="215.1" y2="113.2"/>
        </g>
      </g>
    </g>
  </g>
</svg>